<?xml version="1.0" encoding="UTF-8" standalone="no"?>
<!DOCTYPE svg PUBLIC "-//W3C//DTD SVG 1.1//EN" "http://www.w3.org/Graphics/SVG/1.1/DTD/svg11.dtd">
<svg width="100%" height="100%" viewBox="0 0 23 24" version="1.1" xmlns="http://www.w3.org/2000/svg" xmlns:xlink="http://www.w3.org/1999/xlink" xml:space="preserve" xmlns:serif="http://www.serif.com/" style="fill-rule:evenodd;clip-rule:evenodd;stroke-linejoin:round;stroke-miterlimit:2;">
    <path d="M14.433,18.96C12.715,20.204 11.051,21.406 9.343,22.64C10.327,23.782 11.165,23.954 12.425,23.27C15.293,21.718 18.269,20.37 21.195,18.926C21.547,18.752 21.857,18.498 22.651,17.976C19.125,16.074 15.897,14.332 12.667,12.588C12.567,12.744 12.467,12.898 12.367,13.054C13.041,15.02 15.349,15.38 16.549,17.024C12.675,17.944 8.997,18.05 5.195,16.988C2.073,16.114 1.753,13.934 2.975,11.054C4.443,7.596 7.383,5.522 10.409,3.582C11.739,2.728 13.111,1.94 14.521,1.088C13.667,-0.146 12.741,-0.218 11.757,0.314C8.667,1.986 5.553,3.678 3.305,6.458C2.183,7.842 1.195,9.414 0.501,11.052C-0.655,13.79 0.221,15.912 2.815,17.384C5.957,19.168 9.379,19.084 12.821,18.832C13.223,18.802 13.621,18.726 14.021,18.694C14.095,18.688 14.177,18.788 14.433,18.96" style="fill-rule:nonzero;"/>
</svg>
