<?xml version="1.0" encoding="UTF-8" standalone="no"?>
<!DOCTYPE svg PUBLIC "-//W3C//DTD SVG 1.1//EN" "http://www.w3.org/Graphics/SVG/1.1/DTD/svg11.dtd">
<svg width="100%" height="100%" viewBox="0 0 20 22" version="1.1" xmlns="http://www.w3.org/2000/svg" xmlns:xlink="http://www.w3.org/1999/xlink" xml:space="preserve" xmlns:serif="http://www.serif.com/" style="fill-rule:evenodd;clip-rule:evenodd;stroke-linejoin:round;stroke-miterlimit:2;">
    <path d="M13.812,9.398C12.914,8.398 11.45,8.564 10.664,9.6C10.248,10.148 10.404,10.874 9.954,11.072C9.158,11.422 7.578,11.256 6.696,11.546C5.908,11.41 6.12,10.942 6.018,10.424C5.812,9.366 5.202,6.818 5.306,5.878C5.322,5.716 5.486,5.558 5.466,5.436C5.394,5.024 4.802,4.84 5.662,4.328C5.526,4.154 5.282,4.18 5.118,4.056C4.812,3.824 4.672,2.158 4.53,1.648C4.456,1.38 4.016,0.652 4.156,0.464C4.374,0.34 4.644,0.304 4.888,0.282C7.41,0.066 10.324,0.156 12.886,0.104C13.544,0.09 14.324,-0.174 14.976,0.196C15.534,1.288 16.186,2.354 16.542,3.534C16.398,4.388 16.966,6.288 16.68,6.986C16.626,7.118 16.478,7.22 16.386,7.326L16.742,7.702L16.478,8.142C16.466,8.54 17.072,8.44 16.924,9.32C16.892,9.512 16.524,10.138 16.362,10.212C16.264,10.258 14.958,10.47 14.796,10.468C14.08,10.456 14.218,9.848 13.812,9.398ZM16.384,0.56C17.254,0.448 17.606,1.304 17.964,1.934C18.952,3.674 18.68,4.182 18.838,6.056C18.964,7.538 19.238,9.006 19.198,10.506C19.17,10.656 18.142,12.13 17.978,12.284C17.686,12.558 16.926,12.65 16.508,12.72C13.246,13.266 9.736,13.654 6.446,14.014C6.048,14.058 5.712,14.272 5.258,14.184C4.936,14.122 3.886,12.676 3.704,12.286C3.078,9.072 2.85,5.634 2.188,2.446C2.134,2.18 2.062,1.946 1.924,1.71C1.714,1.35 1.092,0.968 1.202,0.51C1.378,0.308 2.662,0.326 2.918,0.444C3.134,0.546 3.592,1.602 3.67,1.872C4.468,4.644 4.462,8.174 5.146,11.024C5.276,11.568 5.444,12.092 5.942,12.41C6.34,12.666 6.582,12.418 6.992,12.38C8.012,12.284 9.004,12.08 9.98,12.008C11.032,11.93 10.862,12.384 11.594,12.662C12.216,12.898 13.258,12.68 13.746,12.228C13.954,12.038 14.086,11.518 14.452,11.392C15.096,11.17 16.53,11.34 17.012,11.046C17.248,10.902 17.792,9.754 17.866,9.446C18.012,8.848 17.794,8.59 17.748,8.054C17.62,6.53 17.702,3.764 17.18,2.442C17.032,2.066 16.648,1.526 16.494,1.132C16.422,0.946 16.366,0.762 16.384,0.56ZM16.456,14.664C17.634,14.54 16.628,15.422 16.664,15.582C16.682,15.672 16.898,15.796 16.968,15.918C17.246,16.406 17.012,17.28 16.448,17.474C13.77,18.012 11.054,18.358 8.366,18.84C8.16,18.876 7.922,19.058 7.784,19.07C7.712,19.078 6.69,18.638 6.67,18.58L6.814,17.862C6.278,17.534 5.998,16.546 6.702,16.268C8.868,15.842 11.068,15.608 13.244,15.268C14.284,15.106 15.4,14.776 16.456,14.664ZM17.984,19.147C17.796,19.321 17.64,19.549 17.406,19.613C14.3,19.965 11.154,20.735 8.06,21.077C6.512,21.247 5.268,21.359 4.072,20.183C4.038,19.513 3.622,17.283 3.984,16.819C4.168,16.583 4.964,16.443 5.212,16.593C5.666,16.867 5.412,18.713 5.642,19.249C5.738,19.477 6.81,19.987 7.074,20.005C7.43,20.029 7.55,19.859 7.804,19.823C9.784,19.537 11.754,19.187 13.73,18.843C14.794,18.657 15.91,18.577 16.956,18.345C17.282,18.273 17.812,17.429 18,17.119L18.034,14.609L18.974,13.823C19.138,13.943 19.178,14.031 19.206,14.227C19.274,14.733 19.288,17.217 19.198,17.681C19.15,17.931 18.222,18.927 17.984,19.147ZM2.121,19.001C1.941,19.007 1.775,19.031 1.615,18.917C0.927,18.423 1.085,15.999 1.031,15.185C0.701,15.315 0.803,15.967 0.439,16.007C0.077,16.047 0.061,15.527 0.033,15.229C-0.109,13.719 0.253,11.543 0.309,9.965C0.369,8.247 0.195,6.187 0.393,4.509C0.417,4.307 0.461,4.147 0.623,4.011C0.743,4.587 1.061,5.203 1.121,5.785C1.433,8.785 1.609,11.859 1.849,14.867C1.957,16.243 1.985,17.627 2.121,19.001ZM12.09,9.75C12.888,9.588 13.574,10.534 13.1,11.31C12.484,12.322 10.892,11.43 11.344,10.372C11.402,10.236 11.928,9.784 12.09,9.75Z"/>
</svg>
