<?xml version="1.0" encoding="UTF-8" standalone="no"?>
<!DOCTYPE svg PUBLIC "-//W3C//DTD SVG 1.1//EN" "http://www.w3.org/Graphics/SVG/1.1/DTD/svg11.dtd">
<svg width="100%" height="100%" viewBox="0 0 33 29" version="1.1" xmlns="http://www.w3.org/2000/svg" xmlns:xlink="http://www.w3.org/1999/xlink" xml:space="preserve" xmlns:serif="http://www.serif.com/" style="fill-rule:evenodd;clip-rule:evenodd;stroke-linejoin:round;stroke-miterlimit:2;">
    <path d="M8.686,6.029L6.9,8.967L5.08,7.043L6.262,2.657L8.686,6.029ZM27.571,7.121L25.653,8.937L23.481,6.019L26.185,2.779L27.571,7.121ZM30.38,8.004L31.468,6.524L32.494,5.138L32.384,6.886L31.982,8.708L31.878,10.57L31.424,12.386L31.2,14.23L31.102,16.094L30.804,17.934L30.54,19.776L30.198,21.566L29.506,23.278L28.294,24.686L26.708,25.64L25.194,26.678L23.52,27.442L21.738,27.906L19.928,28.202L18.112,28.44L17.232,28.216L16.408,28.636L14.452,28.418L12.632,28.218L10.846,27.826L9.066,27.378L7.416,26.58L5.776,25.756L4.334,24.618L3.174,23.198L2.386,21.56L2.056,19.774L1.802,17.928L1.436,16.098L1.4,14.226L1.08,12.394L0.714,10.566L0.57,8.71L0.248,6.878L0,4.974L1.144,6.488L2.11,8.056L3.198,9.536L4.284,10.974L3.974,13.2L3.868,15.476L3.948,15.432L4.702,17.21L5.886,18.744L7.246,20.138L8.926,21.16L9.004,18.562L10.564,18.006L12.092,17.154L13.338,15.914L13.644,14.212L13.352,12.554L12.186,11.352L10.584,10.908L8.996,10.974L10.014,9.432L10.97,7.812L12.164,6.35C12.164,6.35 13.09,6.124 13.242,5.87C13.384,5.63 13.162,4.76 13.162,4.76L14.146,3.158L15.16,1.578L16.268,0.042L16.268,0.012L16.278,0.03L16.298,0L16.298,0.062L17.302,1.646L18.316,3.228L19.436,4.736L20.398,6.352L21.516,7.864L22.494,9.468L23.54,10.98L21.982,10.942L20.342,11.288L19.162,12.53L19.082,13.104C19.082,13.104 18.524,13.218 18.47,13.378C18.396,13.604 18.928,14.212 18.928,14.212L19.318,15.854L20.542,17.058L22.032,17.93L23.75,18.51L23.626,21.164L25.304,20.12L26.732,18.794L27.938,17.258C27.938,17.258 28.358,16.512 28.436,16.33C28.478,16.232 28.846,16.452 28.86,16.298C28.888,15.952 28.64,15.482 28.64,15.482L28.54,13.206L28.15,10.946L29.32,9.504L30.38,8.004ZM16.374,25.908L18.644,21.986L16.374,17.746L15.47,19.428C15.428,19.51 15.408,19.602 15.418,19.694C15.434,19.866 15.45,20.15 15.39,20.252C15.354,20.314 15.228,20.384 15.11,20.438C14.954,20.512 14.826,20.632 14.744,20.786C14.744,20.786 14.818,21.166 14.73,21.236C14.688,21.268 14.524,21.198 14.524,21.198L14.102,21.986L16.374,25.908Z"/>
</svg>
