<?xml version="1.0" encoding="UTF-8" standalone="no"?>
<!DOCTYPE svg PUBLIC "-//W3C//DTD SVG 1.1//EN" "http://www.w3.org/Graphics/SVG/1.1/DTD/svg11.dtd">
<svg width="100%" height="100%" viewBox="0 0 43 43" version="1.1" xmlns="http://www.w3.org/2000/svg" xmlns:xlink="http://www.w3.org/1999/xlink" xml:space="preserve" xmlns:serif="http://www.serif.com/" style="fill-rule:evenodd;clip-rule:evenodd;stroke-linejoin:round;stroke-miterlimit:2;">
    <path d="M0,28.569L27.106,1.463C29.057,-0.488 32.226,-0.488 34.177,1.463L41.248,8.535C43.199,10.486 43.199,13.654 41.248,15.606L14.142,42.711L0,42.711L0,28.569ZM25.692,6.649L4.007,28.334L14.378,38.704L36.062,17.02L25.692,6.649ZM37.948,15.134L39.362,13.72C40.273,12.809 40.273,11.331 39.362,10.42L32.291,3.349C31.381,2.438 29.902,2.438 28.991,3.349L27.577,4.763L37.948,15.134ZM2.667,30.765L2.667,40.045L11.947,40.045L2.667,30.765Z"/>
</svg>
