<?xml version="1.0" encoding="UTF-8" standalone="no"?>
<!DOCTYPE svg PUBLIC "-//W3C//DTD SVG 1.1//EN" "http://www.w3.org/Graphics/SVG/1.1/DTD/svg11.dtd">
<svg width="100%" height="100%" viewBox="0 0 34 35" version="1.1" xmlns="http://www.w3.org/2000/svg" xmlns:xlink="http://www.w3.org/1999/xlink" xml:space="preserve" xmlns:serif="http://www.serif.com/" style="fill-rule:evenodd;clip-rule:evenodd;stroke-linejoin:round;stroke-miterlimit:2;">
    <g>
        <path d="M15.498,31.847L14.282,31.071L13.19,29.595L12.3,28.833L11.248,27.915L10.198,26.893L9.182,25.943L8.172,24.859L7.178,24.047L6.2,22.581L5.292,22.111L4.188,20.683L3.264,20.035L2.166,18.941L1.394,17.485L1.146,16.983L1.446,16.511L2.134,15.419L2.994,14.209L4.398,13.145L5.226,12.249L6.33,11.251L7.376,10.305L8.31,9.339L9.266,8.323L10.026,7.267L11.494,6.231L11.986,5.313L13.456,4.223L14.194,3.329L15.264,2.287L16.574,1.495L17.122,1.181L17.64,1.539L18.68,2.255L19.862,3.065L21,4.187L22.006,5.097L23.024,6.211L24.004,7.075L24.978,8.431L25.854,9.323L26.85,10.227L27.884,11.245L28.922,12.005L29.992,13.293L30.914,14.229L31.934,15.005L32.154,15.175L32.254,15.431L32.744,16.679L32.914,17.117L32.688,17.529L32.068,18.645L31.086,19.893L29.832,20.937L28.934,21.867L28.034,22.889L26.974,23.929L25.758,24.873L24.962,25.803L24.13,26.875L22.692,27.889L21.892,28.767L20.812,29.769L20.044,30.773L18.804,31.831L17.564,32.549L17.038,32.847L16.528,32.517C16.186,32.293 15.842,32.071 15.498,31.847Z" style="fill:white;fill-rule:nonzero;"/>
        <path d="M31.934,16.005L32.551,14.219L32.76,14.38L32.154,16.175L33.088,14.818L33.183,15.061L32.254,16.431L31.607,15.987L31.595,15.983L32.254,16.431L33.185,15.066L33.675,16.314L32.744,17.679L32.586,17.571L32.587,17.573L32.744,17.679L33.681,16.33L33.842,16.745L32.914,18.117L33.784,17.61L33.57,18.001L32.688,18.529L32.129,17.574L32.123,17.569L32.688,18.529L33.562,18.015L32.903,19.201L31.807,20.594L30.513,21.671L29.669,22.545L28.76,23.577L27.633,24.683L26.451,25.601L25.737,26.435L24.828,27.606L23.357,28.643L22.603,29.472L21.554,30.444L20.774,31.465L19.384,32.651L18.061,33.417L17.003,34.016L15.982,33.355L15.98,33.354C15.64,33.131 15.298,32.91 14.956,32.688L13.588,31.815L12.453,30.281L11.646,29.59L10.57,28.651L9.507,27.617L8.474,26.65L7.486,25.591L6.429,24.727L5.511,23.351L4.636,22.898L3.489,21.415L2.619,20.804L1.353,19.543L0.504,17.941L0,16.922L0.601,15.976L1.303,14.862L2.268,13.505L3.723,12.401L4.522,11.537L5.659,10.509L6.68,9.586L7.586,8.649L8.492,7.686L9.312,6.547L10.724,5.55L11.21,4.643L12.762,3.492L13.457,2.651L14.648,1.491L16.066,0.633L17.172,0L18.208,0.716L19.246,1.431L20.5,2.291L21.687,3.46L22.712,4.387L23.726,5.497L24.75,6.4L25.745,7.785L26.547,8.602L27.537,9.5L28.533,10.481L29.612,11.271L30.734,12.622L31.576,13.476L32.539,14.209L31.934,16.005ZM31.82,17.056L31.83,17.063L31.823,17.051L31.813,17.044L31.323,15.797L30.308,15.025L30.251,14.982L29.25,13.965L28.231,12.739L27.234,12.009L26.163,10.954L25.16,10.044L24.21,9.077L23.258,7.75L22.322,6.926L21.3,5.807L20.313,4.914L19.223,3.84L18.114,3.079L17.072,2.362L15.879,3.084L14.93,4.008L14.149,4.954L12.761,5.983L12.264,6.912L10.739,7.987L10.039,8.961L9.033,10.029L8.071,11.024L7,11.993L5.93,12.961L5.072,13.889L3.72,14.913L2.965,15.976L2.292,17.044L2.979,18.339L3.909,19.266L4.886,19.951L5.948,21.325L6.889,21.812L7.926,23.367L8.857,24.128L9.89,25.236L10.888,26.17L11.926,27.18L12.954,28.077L13.926,28.909L14.976,30.328L16.04,31.007L16.043,31.009C16.387,31.233 16.731,31.455 17.073,31.678L18.224,31.011L19.314,30.081L20.069,29.094L21.181,28.063L22.026,27.135L23.431,26.144L24.186,25.171L25.064,24.146L26.315,23.175L27.307,22.201L28.198,21.189L29.15,20.203L30.365,19.192L31.232,18.09L31.813,17.044L31.82,17.056Z" style="fill:rgb(196,193,205);"/>
        <path d="M24.593,15.851L24.067,14.893L23.895,13.699L23.667,12.521L22.563,11.285L21.505,9.991L21.279,9.787L19.519,9.029L18.331,8.963L17.061,8.911L15.799,9.107L14.527,8.991L12.653,10.003L11.527,11.249L10.435,12.517L10.309,13.719L10.117,14.955L9.395,15.975L8.855,16.757L9.005,18.315L9.375,19.831L9.811,20.455L10.851,21.153L11.889,21.879L12.439,22.991L12.901,24.625L14.383,25.333L14.643,23.865L15.597,24.137L15.971,25.277L16.365,26.515L16.969,26.455L17.151,26.429L17.675,26.457L18.143,25.275L18.399,24.397L19.361,24.159L19.723,25.357L21.107,24.653L21.593,22.969L22.245,21.889L23.239,21.111L24.309,20.453L24.779,19.845L25.027,18.299L25.223,16.761L24.593,15.851ZM14.523,19.803L12.549,18.807L11.817,17.333L12.331,15.975L14.807,16.425L15.941,18.497L14.523,19.803ZM17.323,22.071L17.061,22.229L16.799,22.071L16.227,20.499L17.061,19.081L17.893,20.499L17.323,22.071ZM21.573,18.807L21.183,19.003C21.183,19.003 20.955,19.115 20.813,19.189C20.667,19.267 20.357,19.419 20.357,19.419L19.597,19.803L18.179,18.497L19.313,16.425L21.789,15.975L22.303,17.333L21.573,18.807Z" style="fill:rgb(58,49,89);fill-rule:nonzero;"/>
    </g>
</svg>
