<?xml version="1.0" encoding="UTF-8" standalone="no"?>
<!DOCTYPE svg PUBLIC "-//W3C//DTD SVG 1.1//EN" "http://www.w3.org/Graphics/SVG/1.1/DTD/svg11.dtd">
<svg width="100%" height="100%" viewBox="0 0 22 33" version="1.1" xmlns="http://www.w3.org/2000/svg" xmlns:xlink="http://www.w3.org/1999/xlink" xml:space="preserve" xmlns:serif="http://www.serif.com/" style="fill-rule:evenodd;clip-rule:evenodd;stroke-linejoin:round;stroke-miterlimit:2;">
    <path d="M7.052,32.316L5.148,30.864L4.114,28.62L2.75,26.61L1.426,24.562L0.942,22.35L0.168,20.248L0,18.002L0.326,15.766L1.084,13.644L2.44,11.648L4.178,9.994L6.062,8.466L8.082,7.094L10.28,6.01L12.686,5.514L14.878,4.582L16.864,3.306L18.832,1.976L20.15,0L21.156,0.034L21.734,2.748L21.76,5.52L21.968,8.306L21.24,11.102L20.798,13.954L19.156,14.024L20.088,15.574L18.8,17.62L17.144,19.362L15.296,20.874L13.338,22.312L10.972,22.878L7.948,23.824L6.404,23.662L6.516,23.728L6.25,23.774L6.314,21.488L6.778,19.248L9.352,18.474L11.778,17.962L9.886,17.75L7.948,17.046L9.298,14.788L11.294,13.068L13.042,11.414L13.952,10.8L16.654,8.224L14.714,8.842L12.914,9.38L10.808,10.872L8.862,12.528L6.838,10.818L6.698,12.178L7.43,13.722L6.36,14.466L5.344,16.606L4.178,15.282L2.626,14.126L3.198,16.262L4.246,18.098L3.884,20.548L4.144,22.98L4.65,25.356L5.518,27.628L6.182,30.018L7.436,32.136L7.052,32.316Z" style="fill-rule:nonzero;"/>
</svg>
