<?xml version="1.0" encoding="UTF-8" standalone="no"?>
<!DOCTYPE svg PUBLIC "-//W3C//DTD SVG 1.1//EN" "http://www.w3.org/Graphics/SVG/1.1/DTD/svg11.dtd">
<svg width="100%" height="100%" viewBox="0 0 27 27" version="1.1" xmlns="http://www.w3.org/2000/svg" xmlns:xlink="http://www.w3.org/1999/xlink" xml:space="preserve" xmlns:serif="http://www.serif.com/" style="fill-rule:evenodd;clip-rule:evenodd;stroke-linejoin:round;stroke-miterlimit:2;">
    <path d="M6.011,14.517L6.008,14.514C5.667,14.212 5.729,14.268 5.446,14.043C5.137,13.841 4.993,13.565 4.971,13.286C4.939,12.884 5.17,12.46 5.586,12.221C5.949,11.955 6.221,11.677 6.608,11.356C6.791,11.2 6.991,11.033 7.204,10.857C7.395,10.698 7.546,10.467 7.756,10.299C8.199,9.949 8.667,9.569 9.177,9.317L9.198,9.307L9.221,9.3C9.343,9.267 9.472,9.265 9.602,9.268C9.709,9.272 9.819,9.29 9.916,9.239C9.933,9.223 9.938,9.195 9.948,9.167C9.977,9.087 9.997,8.995 10.022,8.908C10.075,8.726 10.157,8.566 10.289,8.473L10.297,8.467L10.306,8.462C11.117,7.983 11.944,7.537 12.867,7.361L12.869,7.361C13.667,7.224 14.18,7.334 14.882,7.724C15.11,7.828 15.373,7.918 15.601,8.043L15.603,8.044C15.833,8.174 16.009,8.385 16.236,8.531L16.239,8.533C16.661,8.822 17.097,9.094 17.537,9.359L17.556,9.371L17.574,9.387C18.149,9.9 18.806,10.352 19.363,10.876C19.575,11.048 19.834,11.143 20.016,11.299C20.323,11.568 20.671,11.903 20.9,12.115C21.252,12.434 21.564,12.61 21.543,13.193C21.555,13.617 21.405,13.848 21.182,14.043C21.011,14.191 20.782,14.311 20.556,14.524L20.554,14.526C20.368,14.692 20.204,14.907 19.995,15.081L19.993,15.083C19.879,15.174 19.756,15.198 19.627,15.188C19.535,15.18 19.439,15.14 19.344,15.141C19.305,15.144 19.283,15.178 19.258,15.211C19.218,15.264 19.185,15.329 19.152,15.397C19.035,15.64 18.92,15.902 18.759,16.027C18.563,16.185 18.365,16.353 18.155,16.513C17.757,16.845 17.352,17.179 16.931,17.487L16.919,17.496L16.907,17.503C16.011,18.011 15.076,18.555 14.17,19.003L14.153,19.012L14.134,19.018C13.813,19.118 13.488,19.059 13.173,19.069C12.663,19.104 12.179,18.893 11.708,18.64C11.593,18.585 11.487,18.491 11.385,18.381C11.283,18.272 11.187,18.141 11.067,18.072C10.968,18.016 10.842,18.038 10.722,18.031C10.574,18.021 10.431,17.992 10.306,17.912C10.087,17.775 9.88,17.609 9.663,17.457C9.449,17.309 9.205,17.2 8.993,17.045C8.782,16.89 8.622,16.666 8.419,16.509C8.007,16.195 7.597,15.861 7.213,15.539C6.778,15.231 6.348,14.861 6.011,14.517ZM6.247,13.221C6.592,13.49 6.981,13.872 7.321,14.191C7.715,14.483 8.13,14.814 8.516,15.138C8.932,15.452 9.325,15.78 9.673,16.127C10.053,16.355 10.467,16.623 10.829,16.89C11.353,16.892 11.832,17.112 12.178,17.56L12.18,17.563C12.254,17.664 12.355,17.687 12.461,17.741L12.465,17.743C12.705,17.877 12.889,17.941 13.148,17.93C13.34,17.919 13.583,17.969 13.775,17.934C14.148,17.724 14.609,17.488 14.998,17.281C15.413,17.037 15.869,16.775 16.289,16.543C16.733,16.213 17.172,15.849 17.61,15.49C17.836,15.304 18.028,15.081 18.168,14.826C18.401,14.405 18.703,14.055 19.201,14.004C19.37,13.988 19.531,13.93 19.651,13.814C19.876,13.596 20.118,13.406 20.352,13.236C19.619,13.008 18.444,12.65 16.951,12.388C16.922,12.383 16.89,12.4 16.893,12.43C16.963,13.435 16.457,14.438 15.763,15.142L15.758,15.148C15.353,15.649 14.825,16.002 14.197,16.165C13.596,16.324 12.936,16.296 12.351,16.111C11.722,15.984 11.151,15.692 10.693,15.245C10.474,15.026 10.346,14.721 10.189,14.453C10.034,14.186 9.876,13.914 9.794,13.608C9.715,13.316 9.797,13 9.797,12.681C9.797,12.59 9.782,12.497 9.768,12.406C9.764,12.38 9.739,12.36 9.712,12.365C8.222,12.631 7.034,12.953 6.247,13.221ZM14.65,12.106C14.687,12.395 14.647,12.643 14.558,12.848C14.354,13.316 13.887,13.577 13.396,13.607C12.91,13.638 12.41,13.441 12.135,13.027C11.978,12.791 11.891,12.482 11.932,12.097C11.741,12.11 11.551,12.125 11.363,12.142C11.053,12.171 10.824,12.445 10.849,12.754C10.876,13.101 10.959,13.519 11.173,13.876C11.276,14.046 11.385,14.32 11.502,14.44C11.721,14.656 12.097,14.898 12.481,14.967L12.499,14.97L12.516,14.976C12.969,15.126 13.48,15.188 13.903,15.064L13.909,15.062C14.305,14.967 14.637,14.723 14.924,14.373L14.931,14.364L14.939,14.356C15.382,13.903 15.702,13.349 15.748,12.759C15.773,12.452 15.539,12.185 15.233,12.154C15.04,12.136 14.844,12.12 14.65,12.106ZM8.905,0.037L8.915,0.033L8.963,0.013L9.028,0L9.094,0.001L9.156,0.015L9.258,0.074L9.327,0.156L9.364,0.256L9.365,0.373L9.347,0.434L9.316,0.492L9.273,0.542L9.224,0.58C9.084,0.671 8.943,0.764 8.805,0.857C8.257,1.226 7.793,1.701 7.303,2.145C6.812,2.589 6.228,2.948 5.808,3.455C5.384,3.966 5.095,4.58 4.754,5.142C3.398,7.402 2.72,10.08 2.947,12.72C3.042,13.406 3.346,14.028 3.567,14.646L3.568,14.651C3.977,15.958 4.681,17.098 5.713,17.979C6.748,18.815 7.983,19.407 9.308,19.749C9.871,19.867 10.49,19.829 11.112,19.827C11.714,19.824 12.322,19.814 12.903,19.669C13.074,19.626 13.225,19.676 13.368,19.762L13.482,19.833C13.499,19.844 13.516,19.853 13.534,19.861C13.542,19.865 13.549,19.871 13.558,19.868L13.593,19.857L13.613,19.856C13.633,19.841 13.739,19.758 13.798,19.698C13.947,19.548 14.103,19.403 14.216,19.367L14.218,19.367C14.526,19.271 14.726,19.099 14.977,18.969L14.982,18.967C15.663,18.649 16.24,18.266 16.909,17.899L17.017,17.855L17.131,17.851L17.233,17.883L17.317,17.941L17.379,18.02L17.415,18.119L17.419,18.231L17.383,18.341L17.382,18.343C17.334,18.434 17.283,18.524 17.229,18.612C16.881,19.181 16.353,19.56 15.868,19.955C15.372,20.361 14.903,20.823 14.305,21.058L14.286,21.065C13.108,21.423 11.805,21.491 10.557,21.409L10.555,21.409C9.932,21.357 9.277,21.419 8.664,21.256L8.659,21.254C7.461,20.881 6.321,20.253 5.358,19.471C4.84,19.081 4.275,18.757 3.893,18.278C2.985,17.282 2.431,16.073 2.143,14.763L2.141,14.755C1.962,14.133 1.736,13.506 1.665,12.865C1.594,12.229 1.723,11.587 1.76,10.957C1.797,10.321 1.913,9.708 2.052,9.091C2.19,8.473 2.212,7.816 2.443,7.224C3.14,5.458 4.331,3.923 5.609,2.529L5.612,2.525C6.058,2.078 6.592,1.737 7.092,1.352C7.681,0.888 8.227,0.365 8.905,0.037ZM24.519,12.284C24.718,12.903 24.763,13.558 24.847,14.203C24.929,14.843 25.073,15.489 25.031,16.141C25.014,16.61 24.841,17.109 24.756,17.574L24.755,17.578C24.605,18.26 24.513,19.061 24.215,19.691C23.944,20.272 23.488,20.761 23.158,21.318C22.83,21.873 22.575,22.476 22.184,22.989C21.414,24.059 20.473,24.957 19.352,25.652C18.867,25.987 18.472,26.193 18.356,26.228L18.272,26.243L18.192,26.235L18.127,26.208L18.077,26.17L18.042,26.127L18.016,26.076L18.001,25.979L18.019,25.893L18.067,25.813C18.094,25.78 18.173,25.711 18.321,25.612C18.835,25.264 19.257,24.817 19.701,24.386C20.143,23.955 20.649,23.579 21.03,23.084C21.743,22.066 22.349,20.951 22.892,19.832C23.136,19.257 23.342,18.615 23.443,18.002L23.444,17.998C23.476,17.837 23.516,17.744 23.557,17.665C23.596,17.588 23.639,17.531 23.669,17.375C23.845,16.19 23.808,14.97 23.575,13.799C23.442,13.217 23.195,12.664 22.961,12.115C22.725,11.562 22.54,10.972 22.212,10.472C21.883,9.971 21.392,9.591 20.976,9.159L20.975,9.158C20.531,8.685 20.163,8.152 19.67,7.81C19.151,7.449 18.523,7.319 17.949,7.116C17.376,6.912 16.807,6.629 16.174,6.602L16.169,6.602C15.362,6.537 14.469,6.893 13.625,6.946L13.613,6.947L13.601,6.947C12.917,6.924 12.249,7.111 11.565,7.392C10.856,7.719 10.215,8.069 9.714,8.763L9.728,8.742L9.688,8.797L9.638,8.843L9.581,8.878L9.52,8.9L9.401,8.908L9.294,8.878L9.201,8.816L9.129,8.717L9.107,8.655L9.097,8.587L9.102,8.519L9.121,8.45L9.123,8.446C9.693,7.092 10.989,6.32 12.298,5.806C12.852,5.56 13.444,5.468 14.025,5.363C14.681,5.234 15.336,5.059 16.004,5.077C18.131,5.075 19.962,5.85 21.391,7.431L21.396,7.436C21.867,7.875 22.363,8.305 22.752,8.815C23.146,9.332 23.368,9.962 23.669,10.537C23.971,11.111 24.321,11.667 24.519,12.284ZM10.373,2.866L10.381,2.862C12.069,1.932 14.008,1.697 15.903,1.762L15.917,1.763C16.544,1.818 17.145,2.041 17.762,2.196C18.372,2.351 19.018,2.413 19.603,2.658C20.184,2.9 20.676,3.323 21.218,3.645C21.762,3.965 22.383,4.177 22.876,4.566C23.371,4.958 23.723,5.506 24.151,5.955C24.949,6.705 25.669,7.53 26.258,8.453L26.259,8.455C26.324,8.559 26.385,8.67 26.445,8.784L26.47,8.849L26.482,8.916L26.48,8.984L26.464,9.049L26.402,9.154L26.316,9.227L26.21,9.267L26.089,9.27L26.026,9.253L25.965,9.223L25.912,9.181L25.871,9.133C25.377,8.456 24.912,7.757 24.341,7.146C23.909,6.696 23.391,6.346 22.908,5.955C22.42,5.562 21.977,5.116 21.446,4.792C20.912,4.466 20.324,4.249 19.754,3.999C19.202,3.754 18.677,3.411 18.09,3.258C17.505,3.106 16.883,3.104 16.281,3.051C15.678,2.999 15.067,2.899 14.468,2.955C13.867,3.012 13.296,3.244 12.72,3.417C12.542,3.472 12.317,3.448 12.093,3.415C11.95,3.394 11.807,3.362 11.692,3.401C11.588,3.436 11.52,3.534 11.445,3.626C11.318,3.783 11.189,3.942 11.031,4.03C10.522,4.327 10.114,4.772 9.665,5.158C9.217,5.542 8.672,5.845 8.304,6.303C7.934,6.763 7.71,7.328 7.44,7.848C6.98,8.759 6.722,9.753 6.548,10.755L6.527,10.846L6.489,10.916C6.463,10.953 6.422,10.983 6.391,11.013L6.383,11.021L6.375,11.028C6.041,11.306 5.788,11.545 5.494,11.778L5.405,11.829L5.307,11.85L5.213,11.842L5.128,11.811L5.054,11.757L4.995,11.683L4.959,11.59L4.951,11.491C5.07,9.767 5.26,8.372 6.186,6.868C7.169,5.18 8.565,3.671 10.373,2.866ZM20.127,19.767C20.067,19.886 19.981,20.137 19.893,20.356C19.811,20.562 19.723,20.743 19.66,20.825L19.657,20.827C18.497,22.429 16.802,23.598 14.933,24.25C14.323,24.483 13.731,24.752 13.093,24.861C11.806,25.1 10.5,25.031 9.229,24.733C7.947,24.541 6.706,24.136 5.572,23.526C5.008,23.228 4.503,22.855 3.999,22.475C3.491,22.096 2.903,21.801 2.461,21.353C1.947,20.833 1.59,20.169 1.131,19.607C0.799,19.199 0.493,18.773 0.242,18.316C0.1,18.058 0.027,17.891 0.01,17.824L0,17.713L0.014,17.65L0.042,17.595L0.114,17.523L0.212,17.485L0.319,17.489L0.419,17.539C0.463,17.572 0.575,17.705 0.734,17.956C1.05,18.458 1.516,18.86 1.898,19.318C2.649,20.232 3.531,21.026 4.524,21.675L4.526,21.677C5.015,22.011 5.439,22.464 5.979,22.719C6.504,22.962 7.068,23.151 7.627,23.32C8.185,23.488 8.783,23.485 9.359,23.57L9.372,23.572C10.512,23.8 11.684,23.867 12.83,23.659C13.393,23.546 13.921,23.276 14.46,23.051L14.462,23.051C15.04,22.82 15.615,22.561 16.143,22.214C17.634,21.107 18.935,19.62 19.627,17.899C19.832,17.316 19.969,16.704 20.007,16.084C20.014,15.99 20.008,15.889 20.022,15.796C20.043,15.644 20.103,15.508 20.241,15.402L20.251,15.394L20.262,15.388C20.346,15.336 20.538,15.105 20.729,14.915C20.901,14.746 21.076,14.608 21.193,14.567L21.33,14.544L21.448,14.569L21.506,14.601L21.556,14.644L21.608,14.717L21.637,14.79L21.64,14.801L21.643,14.814C21.796,15.645 21.591,16.499 21.412,17.301C21.263,18.11 21.087,18.692 20.811,19.231C20.674,19.501 20.418,19.683 20.127,19.767Z"/>
</svg>
