<?xml version="1.0" encoding="UTF-8" standalone="no"?>
<!DOCTYPE svg PUBLIC "-//W3C//DTD SVG 1.1//EN" "http://www.w3.org/Graphics/SVG/1.1/DTD/svg11.dtd">
<svg width="100%" height="100%" viewBox="0 0 27 27" version="1.1" xmlns="http://www.w3.org/2000/svg" xmlns:xlink="http://www.w3.org/1999/xlink" xml:space="preserve" xmlns:serif="http://www.serif.com/" style="fill-rule:evenodd;clip-rule:evenodd;stroke-linejoin:round;stroke-miterlimit:2;">
    <path d="M18.409,16.207C18.383,16.181 18.373,16.109 18.337,16.067C18.189,15.899 18.099,15.985 17.931,15.945C17.749,15.901 17.513,15.791 17.329,15.787C17.043,15.779 16.407,15.861 16.151,15.989C16.047,16.041 15.639,16.343 15.611,16.437C15.589,16.503 15.543,16.775 15.537,16.855C15.495,17.327 15.629,17.661 15.753,18.089C15.781,18.185 15.753,18.265 15.805,18.367C15.839,18.433 15.933,18.489 15.979,18.553C16.729,19.623 17.395,20.015 18.599,20.445C18.877,20.543 19.367,20.667 19.419,21.005C19.431,21.087 19.455,21.351 19.453,21.427C19.425,22.015 18.977,22.795 18.549,23.193C18.207,23.509 17.741,23.589 17.357,23.877C16.893,23.863 16.439,23.905 15.979,23.979C15.835,24.115 15.933,24.305 15.911,24.469C15.821,25.199 15.125,26.067 14.493,26.409C14.121,26.611 13.721,26.791 13.285,26.711C13.193,26.695 13.067,26.585 12.953,26.585C12.855,26.587 12.775,26.669 12.627,26.647C12.471,26.623 12.357,26.429 12.245,26.371C12.143,26.317 11.991,26.323 11.885,26.235C11.833,26.193 11.487,25.845 11.443,25.789C11.107,25.353 10.877,24.799 10.715,24.279C10.695,24.215 10.705,24.143 10.685,24.081C10.619,23.881 10.445,23.971 10.291,23.947C9.511,23.823 8.989,23.757 8.319,23.287C7.643,22.811 7.339,22.059 7.215,21.263C7.197,21.153 7.167,20.801 7.229,20.725C7.247,20.705 7.559,20.455 7.595,20.433C7.747,20.339 7.965,20.319 8.123,20.237C8.233,20.179 8.333,20.057 8.437,19.993C8.939,19.679 9.739,19.219 10.107,18.757C10.163,18.687 10.175,18.581 10.223,18.521C10.347,18.363 10.537,18.189 10.641,18.017C10.761,17.821 11.055,16.979 11.061,16.757C11.067,16.571 10.969,16.121 10.865,15.967C10.731,15.771 10.323,15.591 10.091,15.587C9.769,15.583 8.783,15.693 8.529,15.873C8.479,15.907 8.423,16.025 8.347,16.083C7.793,16.501 7.475,16.707 7.075,17.313C6.941,17.513 6.865,17.601 6.717,17.777C6.361,18.201 6.305,18.763 5.911,19.211C5.743,19.401 5.617,19.441 5.359,19.399C4.857,19.321 3.833,18.743 3.511,18.353C3.429,18.253 3.397,18.061 3.329,17.975C3.295,17.933 3.223,17.909 3.179,17.861C3.027,17.697 2.755,16.983 2.687,16.741C2.613,16.479 2.663,16.101 2.343,15.999C2.267,15.975 2.187,15.995 2.109,15.969C1.599,15.803 0.769,15.293 0.417,14.895C0.259,14.717 0.029,14.041 0.007,13.793C-0.017,13.529 0.019,13.033 0.107,12.781C0.125,12.733 0.197,12.721 0.231,12.673C0.291,12.587 0.327,12.397 0.403,12.289C0.445,12.227 0.865,11.829 0.941,11.771C1.211,11.567 1.999,11.211 2.347,11.103C2.521,11.049 2.649,11.133 2.727,10.893C2.821,10.601 2.835,10.227 2.915,9.927C3.019,9.537 3.385,8.865 3.639,8.545C4.033,8.051 5.053,7.617 5.681,7.691C5.839,7.709 5.893,7.811 5.951,7.949C6.251,8.655 6.769,9.657 7.309,10.211C7.787,10.703 8.109,10.757 8.715,11.009C8.941,11.103 9.183,11.239 9.441,11.271C9.941,11.337 10.573,11.165 10.897,10.769C11.329,10.239 11.365,9.415 11.177,8.777C11.145,8.667 10.755,7.977 10.681,7.889C10.591,7.783 10.423,7.715 10.321,7.625C10.237,7.551 10.165,7.401 10.057,7.329C9.975,7.273 9.857,7.261 9.781,7.211C9.235,6.855 8.915,6.567 8.257,6.365C8.041,6.299 7.315,6.213 7.251,5.991C7.235,5.935 7.205,5.565 7.217,5.509C7.255,5.347 7.507,4.797 7.605,4.655C7.685,4.539 7.923,4.273 8.035,4.153C8.419,3.739 9.521,3.117 10.073,2.967C10.149,2.947 10.235,2.965 10.305,2.935C10.323,2.927 10.625,2.693 10.635,2.675C10.701,2.557 10.675,2.319 10.707,2.187C10.737,2.065 10.859,1.953 10.899,1.819C10.931,1.711 10.919,1.605 10.955,1.513C11.001,1.397 11.183,1.269 11.241,1.173C11.279,1.109 11.279,1.031 11.325,0.961C11.495,0.697 12.367,0.125 12.673,0.039C12.979,-0.047 13.009,0.033 13.253,0.053C13.561,0.079 13.803,0.039 14.113,0.149C14.653,0.339 14.879,0.595 15.169,1.065C15.377,1.403 15.619,1.857 15.751,2.229C15.831,2.457 15.723,2.581 16.051,2.619C16.377,2.657 16.461,2.657 16.781,2.747C17.793,3.027 18.235,3.569 18.751,4.429C18.983,4.815 19.009,5.107 19.023,5.537C19.029,5.687 19.101,5.869 19.041,6.011C19.013,6.083 18.637,6.291 18.545,6.337C18.283,6.469 17.865,6.557 17.647,6.691C17.049,7.051 16.633,7.431 16.149,7.923C15.799,8.277 15.689,8.391 15.489,8.877C15.293,9.353 15.321,9.423 15.369,9.915C15.375,9.977 15.333,10.039 15.341,10.107C15.357,10.307 15.717,10.817 15.869,10.963C15.897,10.989 16.167,11.201 16.185,11.207C16.271,11.231 16.381,11.201 16.473,11.215C16.769,11.261 16.979,11.291 17.291,11.239C17.817,11.149 18.081,10.803 18.469,10.507C18.747,10.297 18.785,10.355 19.025,10.043C19.453,9.495 20.127,8.833 20.417,8.209C20.475,8.083 20.507,7.711 20.721,7.691C20.765,7.687 20.813,7.721 20.853,7.717C20.953,7.711 21.035,7.671 21.147,7.693C21.243,7.711 21.723,7.979 21.845,8.047C21.957,8.109 22.451,8.393 22.499,8.447C22.755,8.727 23.101,8.983 23.313,9.313C23.521,9.639 23.517,9.865 23.615,10.195C23.653,10.323 23.879,11.111 23.913,11.147C23.981,11.217 24.193,11.209 24.301,11.251C24.951,11.503 25.963,12.019 26.339,12.637C26.557,12.995 26.731,13.741 26.543,14.139C26.193,14.883 25.383,15.671 24.531,15.813C24.441,15.827 24.213,15.795 24.175,15.851C24.139,15.929 24.175,16.019 24.159,16.099C24.049,16.629 23.777,17.571 23.435,18.007C22.775,18.851 22.053,19.229 20.985,19.279C20.527,19.299 20.555,18.639 20.401,18.345C20.367,18.281 20.305,18.247 20.269,18.181C20.183,18.015 20.099,17.615 19.981,17.481C19.913,17.405 19.835,17.407 19.781,17.353C19.705,17.277 19.611,17.017 19.521,16.921C19.469,16.867 19.389,16.855 19.339,16.807C19.237,16.709 18.777,16.223 18.679,16.215C18.603,16.209 18.495,16.291 18.409,16.207" style="fill-rule:nonzero;"/>
</svg>
