<?xml version="1.0" encoding="UTF-8" standalone="no"?>
<!DOCTYPE svg PUBLIC "-//W3C//DTD SVG 1.1//EN" "http://www.w3.org/Graphics/SVG/1.1/DTD/svg11.dtd">
<svg width="100%" height="100%" viewBox="0 0 25 30" version="1.1" xmlns="http://www.w3.org/2000/svg" xmlns:xlink="http://www.w3.org/1999/xlink" xml:space="preserve" xmlns:serif="http://www.serif.com/" style="fill-rule:evenodd;clip-rule:evenodd;stroke-linejoin:round;stroke-miterlimit:2;">
    <path d="M23.948,0C23.534,1.002 22.96,1.934 22.402,2.862C20.396,6.194 18.12,9.344 15.918,12.546C14.742,14.256 13.656,16.018 12.402,17.672C9.842,21.046 6.854,24.422 3.866,27.428C3.556,27.74 2.608,28.768 2.274,28.88C2.168,28.916 2.062,28.93 1.95,28.934C1.924,28.838 1.948,28.772 1.978,28.682C2.26,27.866 3.086,26.484 3.528,25.678C5.664,21.782 8.124,18.064 10.226,14.138C10.932,12.818 11.586,11.466 12.188,10.094L12.284,10.112C12.3,10.154 12.334,10.198 12.338,10.244C12.398,10.736 12.36,11.364 12.374,11.87C12.376,11.928 12.37,12.044 12.418,12.074L15.342,8.62C17.78,5.88 20.292,3.2 23.034,0.756L23.948,0ZM24.563,5.857C24.709,5.991 24.277,7.669 24.199,7.945C23.195,11.483 21.379,15.005 19.959,18.393C17.607,20.993 15.153,23.495 12.581,25.879C11.537,26.847 10.425,27.927 9.299,28.789C9.071,28.961 8.529,29.449 8.239,29.325C8.159,29.277 8.277,29.131 8.309,29.085C10.531,25.645 13.355,22.467 15.551,19.043C16.287,17.893 16.777,16.535 17.519,15.321C19.545,12.013 21.979,8.937 24.431,5.941L24.563,5.857ZM-0,23.685C0.212,22.737 0.512,21.797 0.83,20.877C2.13,17.119 3.934,13.451 6.082,10.109C8.524,6.309 11.686,3.133 14.928,0.017C15.042,0.067 14.958,0.221 14.928,0.311C14.834,0.607 14.634,0.981 14.496,1.269C11.874,6.749 8.746,12.281 5.27,17.257C3.92,19.189 2.156,21.657 0.522,23.327C0.454,23.399 0.086,23.753 -0,23.685Z"/>
</svg>
