<?xml version="1.0" encoding="UTF-8" standalone="no"?>
<!DOCTYPE svg PUBLIC "-//W3C//DTD SVG 1.1//EN" "http://www.w3.org/Graphics/SVG/1.1/DTD/svg11.dtd">
<svg width="100%" height="100%" viewBox="0 0 27 33" version="1.1" xmlns="http://www.w3.org/2000/svg" xmlns:xlink="http://www.w3.org/1999/xlink" xml:space="preserve" xmlns:serif="http://www.serif.com/" style="fill-rule:evenodd;clip-rule:evenodd;stroke-linejoin:round;stroke-miterlimit:2;">
    <path d="M2.137,23.534L0.431,22.842L0.069,21.742L0.663,19.918L1.743,19.442L3.455,20.124L5.217,20.678L6.889,21.462L8.605,22.13L10.361,22.69L11.591,23.316L6.903,25.222L5.633,24.698L3.845,24.222L2.137,23.534ZM25.752,28.821L26.372,29.837L25.65,31.613L24.512,32.035L22.772,31.427L21.09,30.663L19.336,30.089L17.604,29.469L15.89,28.795L14.228,27.987L13.222,27.697L12.078,28.149L10.308,28.673L8.662,29.523L6.868,29.987L5.224,30.843L3.486,31.459L1.694,31.935L0.69,31.575L0,29.787L0.426,28.649L2.136,27.967L3.924,27.487L5.57,26.643L7.32,26.061L9.056,25.451L10.744,24.717L12.504,24.163L14.222,23.501L15.914,22.771L17.63,22.105L19.37,21.501L21.028,20.681L22.784,20.111L24.474,19.367L25.6,19.911L26.268,21.707L25.76,22.705L24.054,23.397L22.398,24.217L20.642,24.779L18.962,25.537L15.996,26.555L16.564,26.645L18.524,26.047L18.922,26.067L20.614,26.797L22.314,27.507L24.046,28.129L25.752,28.821ZM6.107,17.158L5.203,15.866L4.681,13.678L5.385,12.06C5.385,12.06 6.653,10.84 6.871,10.308C7.063,9.842 7.025,8.298 7.025,8.298L8.715,8.854L9.679,10.308C9.679,10.308 9.813,12.078 10.073,12.596C10.265,12.978 11.249,13.836 11.249,13.836L12.899,13.872L14.147,12.78C14.147,12.78 14.237,11.48 14.039,11.114C13.773,10.622 12.259,9.768 12.259,9.768L10.493,8.374L10.035,6.008L11.127,3.762C11.127,3.762 12.177,2.55 12.369,2.058C12.559,1.576 12.607,0 12.607,0C12.607,0 13.433,1.056 13.641,1.448C13.903,1.944 14.421,3.554 14.421,3.554L15.433,4.686L16.785,5.43L18.199,6.162L19.591,6.952L21.063,8.236L22.121,9.88L22.373,11.29L22.299,12.716L21.497,15.172L20.361,16.746L18.927,18.056L17.699,19.008L16.397,19.866L14.875,20.748L13.301,21.434L11.817,20.572L10.209,19.846L8.673,19L7.427,18.02L6.107,17.158ZM7.408,5.778L6.592,6.392L6.06,7.034L6.086,4.32L6.548,3.602L6.914,3.06L7.868,3.788L8.11,4.168L7.408,5.778ZM15.934,1.272L16.554,0.32L17.742,1.084L17.596,1.766L17.594,2.432L16.726,2.74L16.204,1.928L15.896,1.658L15.934,1.272Z"/>
</svg>
