<?xml version="1.0" encoding="UTF-8" standalone="no"?>
<!DOCTYPE svg PUBLIC "-//W3C//DTD SVG 1.1//EN" "http://www.w3.org/Graphics/SVG/1.1/DTD/svg11.dtd">
<svg width="100%" height="100%" viewBox="0 0 12 13" version="1.1" xmlns="http://www.w3.org/2000/svg" xmlns:xlink="http://www.w3.org/1999/xlink" xml:space="preserve" xmlns:serif="http://www.serif.com/" style="fill-rule:evenodd;clip-rule:evenodd;stroke-linejoin:round;stroke-miterlimit:2;">
    <path d="M5.426,3.336L5.854,3.644C5.92,3.708 6.124,3.63 6.21,3.504C6.246,3.452 6.476,3.306 6.67,3.138C6.682,3.126 6.814,2.952 6.946,2.902C7.056,2.86 7.16,2.544 7.238,2.454C7.292,2.392 7.34,2.336 7.458,2.222C7.67,2.018 7.686,2.034 7.898,1.828C8.11,1.624 8.278,1.79 8.49,1.586C8.704,1.382 8.508,1.186 8.722,0.982C8.934,0.776 8.972,0.816 9.184,0.612C9.396,0.408 9.352,0.362 9.564,0.156C9.656,0.064 9.798,0.03 9.926,0.03C10.244,0.03 10.244,0.004 10.564,0.006C10.882,0.006 11.168,-0 11.486,-0C11.746,-0 11.676,0.24 11.682,0.498C11.684,0.794 11.668,0.794 11.666,1.09C11.662,1.386 11.64,1.386 11.636,1.682C11.636,1.812 11.62,1.946 11.526,2.034C11.302,2.25 11.314,2.262 11.088,2.478C11.08,2.484 10.72,2.572 10.712,2.578C10.504,2.776 10.428,3.074 10.22,3.272C10.014,3.47 10.016,3.472 9.808,3.67C9.602,3.868 9.6,3.868 9.392,4.066C9.184,4.262 9.164,4.242 8.958,4.44C8.75,4.638 8.774,4.662 8.566,4.86C8.36,5.058 8.358,5.056 8.15,5.254C7.942,5.452 7.918,5.426 7.712,5.626C7.504,5.822 7.512,5.83 7.304,6.028C7.098,6.226 7.116,6.244 6.908,6.442C6.702,6.64 6.676,6.614 6.472,6.814C6.372,6.918 6.248,6.992 6.106,6.98C5.86,6.976 5.86,7.004 5.614,7.008C5.472,7.02 5.314,6.952 5.214,6.85C5.012,6.648 5.036,6.624 4.834,6.424C4.632,6.224 4.604,6.254 4.4,6.054C4.198,5.854 4.21,5.842 4.008,5.642C3.806,5.444 3.82,5.43 3.616,5.232C3.414,5.03 3.418,5.026 3.218,4.826C3.014,4.626 2.978,4.664 2.774,4.466C2.572,4.266 2.594,4.244 2.39,4.044C2.188,3.846 2.336,3.81 2.132,3.612C1.93,3.412 1.55,3.25 1.542,3.242C1.322,3.054 1.342,3.028 1.12,2.842C0.9,2.656 0.884,2.676 0.662,2.488C0.656,2.482 0.658,2.464 0.652,2.458C0.426,2.242 0.456,2.212 0.228,1.996C0.136,1.908 0.024,1.812 0.024,1.682C0.02,1.386 0.088,1.386 0.084,1.09C0.082,0.794 0.048,0.794 0.048,0.498C0.056,0.24 0.006,0.018 0.264,0.018C0.582,0.018 0.838,0.034 1.158,0.034C1.476,0.034 1.476,0.018 1.794,0.018C1.922,0.018 2.044,0.088 2.132,0.178C2.344,0.384 2.348,0.38 2.562,0.584C2.776,0.788 2.78,0.786 2.992,0.99C3.206,1.194 3.214,1.186 3.426,1.39C3.64,1.594 3.652,1.584 3.864,1.788C4.078,1.992 4.044,2.026 4.258,2.23C4.332,2.304 4.636,2.596 4.682,2.63C4.796,2.716 4.952,2.942 5.08,3.008C5.332,3.136 5.4,3.328 5.426,3.336ZM5.924,9.266L6.528,8.928C6.662,8.786 6.84,8.574 7.052,8.464C7.082,8.448 7.4,8.214 7.434,8.18C7.642,7.982 7.604,7.942 7.81,7.744C8.018,7.546 8.01,7.536 8.216,7.34C8.424,7.14 8.456,7.176 8.664,6.978C8.872,6.78 8.854,6.762 9.062,6.562C9.268,6.366 9.462,6.078 9.688,5.984C9.804,5.936 9.93,5.912 10.056,5.912C10.242,5.912 10.288,5.908 10.552,5.912C10.872,5.92 11.222,5.906 11.54,5.906C11.798,5.906 11.66,6.136 11.668,6.394C11.668,6.69 11.642,6.69 11.64,6.988C11.636,7.328 11.62,7.276 11.618,7.732C11.618,7.814 11.586,7.894 11.526,7.95C11.32,8.144 11.274,8.082 11.054,8.298C11.024,8.328 10.99,8.352 10.95,8.37C10.758,8.456 10.76,8.466 10.564,8.554C10.474,8.594 10.438,8.696 10.39,8.78C10.294,8.936 10.23,8.898 10.136,9.056C10.114,9.09 10.148,9.17 10.118,9.198C9.91,9.4 9.884,9.374 9.672,9.574C9.462,9.776 9.434,9.748 9.224,9.95C9.014,10.15 9.05,10.188 8.842,10.388C8.63,10.59 8.636,10.596 8.426,10.796C8.216,10.996 8.19,10.97 7.98,11.172C7.77,11.374 7.768,11.37 7.558,11.572C7.552,11.578 7.534,11.576 7.528,11.582C7.35,11.77 7.372,11.792 7.194,11.98C7.014,12.166 7.01,12.164 6.832,12.352C6.654,12.538 6.674,12.558 6.494,12.744C6.396,12.848 6.236,12.908 6.094,12.896C5.848,12.892 5.848,12.87 5.602,12.874C5.46,12.886 5.306,12.844 5.206,12.742C5.012,12.542 5.012,12.542 4.818,12.346C4.624,12.146 4.648,12.122 4.454,11.924C4.258,11.726 4.246,11.738 4.054,11.54L3.664,11.144C3.472,10.944 3.462,10.952 3.268,10.754C3.076,10.556 3.094,10.538 2.898,10.34C2.706,10.14 2.684,10.162 2.49,9.964C2.296,9.766 2.322,9.74 2.13,9.54C1.936,9.344 1.942,9.334 1.748,9.138C1.556,8.938 1.544,8.95 1.358,8.746C1.294,8.642 1.194,8.542 1.076,8.518C0.972,8.498 0.878,8.456 0.796,8.39C0.732,8.338 0.66,8.342 0.606,8.29C0.406,8.1 0.384,8.122 0.182,7.93C0.09,7.842 0.032,7.708 0.028,7.58C0.026,7.284 0.04,7.284 0.038,6.988C0.034,6.69 -0,6.69 -0,6.394C0.008,6.136 -0,5.928 0.26,5.928C0.578,5.928 0.826,5.946 1.146,5.946C1.464,5.946 1.464,5.94 1.782,5.94C1.912,5.94 2.052,5.964 2.142,6.056C2.346,6.26 2.336,6.27 2.542,6.474C2.748,6.678 2.72,6.708 2.924,6.912C3.13,7.116 3.142,7.102 3.348,7.308C3.554,7.51 3.542,7.522 3.748,7.726C3.954,7.93 3.996,7.886 4.202,8.09C4.312,8.2 4.36,8.254 4.412,8.312C4.488,8.394 4.59,8.576 4.732,8.708C4.822,8.794 5.104,8.95 5.172,9.004C5.32,9.128 5.768,9.352 5.924,9.266Z"/>
</svg>
