<?xml version="1.0" encoding="UTF-8" standalone="no"?>
<!DOCTYPE svg PUBLIC "-//W3C//DTD SVG 1.1//EN" "http://www.w3.org/Graphics/SVG/1.1/DTD/svg11.dtd">
<svg width="100%" height="100%" viewBox="0 0 12 13" version="1.1" xmlns="http://www.w3.org/2000/svg" xmlns:xlink="http://www.w3.org/1999/xlink" xml:space="preserve" xmlns:serif="http://www.serif.com/" style="fill-rule:evenodd;clip-rule:evenodd;stroke-linejoin:round;stroke-miterlimit:2;">
    <path d="M6.272,9.561L5.844,9.253C5.778,9.189 5.574,9.267 5.488,9.393C5.452,9.445 5.222,9.591 5.028,9.759C5.016,9.771 4.884,9.945 4.752,9.995C4.642,10.037 4.538,10.353 4.46,10.443C4.406,10.505 4.358,10.561 4.24,10.675C4.028,10.879 4.012,10.863 3.8,11.069C3.588,11.273 3.42,11.107 3.208,11.311C2.994,11.515 3.19,11.711 2.976,11.915C2.764,12.121 2.726,12.081 2.514,12.285C2.302,12.489 2.346,12.535 2.134,12.741C2.042,12.833 1.9,12.867 1.772,12.867C1.454,12.867 1.454,12.893 1.134,12.891C0.816,12.891 0.53,12.897 0.212,12.897C-0.048,12.897 0.022,12.657 0.016,12.399C0.014,12.103 0.03,12.103 0.032,11.807C0.036,11.511 0.058,11.511 0.062,11.215C0.062,11.085 0.078,10.951 0.172,10.863C0.396,10.647 0.384,10.635 0.61,10.419C0.618,10.413 0.978,10.325 0.986,10.319C1.194,10.121 1.27,9.823 1.478,9.625C1.684,9.427 1.682,9.425 1.89,9.227C2.096,9.029 2.098,9.029 2.306,8.831C2.514,8.635 2.534,8.655 2.74,8.457C2.948,8.259 2.924,8.235 3.132,8.037C3.338,7.839 3.34,7.841 3.548,7.643C3.756,7.445 3.78,7.471 3.986,7.271C4.194,7.075 4.186,7.067 4.394,6.869C4.6,6.671 4.582,6.653 4.79,6.455C4.996,6.257 5.022,6.283 5.226,6.083C5.326,5.979 5.45,5.905 5.592,5.917C5.838,5.921 5.838,5.893 6.084,5.889C6.226,5.877 6.384,5.945 6.484,6.047C6.686,6.249 6.662,6.273 6.864,6.473C7.066,6.673 7.094,6.643 7.298,6.843C7.5,7.043 7.488,7.055 7.69,7.255C7.892,7.453 7.878,7.467 8.082,7.665C8.284,7.867 8.28,7.871 8.48,8.071C8.684,8.271 8.72,8.233 8.924,8.431C9.126,8.631 9.104,8.653 9.308,8.853C9.51,9.051 9.362,9.087 9.566,9.285C9.768,9.485 10.148,9.647 10.156,9.655C10.376,9.843 10.356,9.869 10.578,10.055C10.798,10.241 10.814,10.221 11.036,10.409C11.042,10.415 11.04,10.433 11.046,10.439C11.272,10.655 11.242,10.685 11.47,10.901C11.562,10.989 11.674,11.085 11.674,11.215C11.678,11.511 11.61,11.511 11.614,11.807C11.616,12.103 11.65,12.103 11.65,12.399C11.642,12.657 11.692,12.879 11.434,12.879C11.116,12.879 10.86,12.863 10.54,12.863C10.222,12.863 10.222,12.879 9.904,12.879C9.776,12.879 9.654,12.809 9.566,12.719C9.354,12.513 9.35,12.517 9.136,12.313C8.922,12.109 8.918,12.111 8.706,11.907C8.492,11.703 8.484,11.711 8.272,11.507C8.058,11.303 8.046,11.313 7.834,11.109C7.62,10.905 7.654,10.871 7.44,10.667C7.366,10.593 7.062,10.301 7.016,10.267C6.902,10.181 6.746,9.955 6.618,9.889C6.366,9.761 6.298,9.569 6.272,9.561ZM5.774,3.632L5.17,3.97C5.036,4.112 4.858,4.324 4.646,4.434C4.616,4.45 4.298,4.684 4.264,4.718C4.056,4.916 4.094,4.956 3.888,5.154C3.68,5.352 3.688,5.362 3.482,5.558C3.274,5.758 3.242,5.722 3.034,5.92C2.826,6.118 2.844,6.136 2.636,6.336C2.43,6.532 2.236,6.82 2.01,6.914C1.894,6.962 1.768,6.986 1.642,6.986C1.456,6.986 1.41,6.99 1.146,6.986C0.826,6.978 0.476,6.992 0.158,6.992C-0.1,6.992 0.038,6.762 0.03,6.504C0.03,6.208 0.056,6.208 0.058,5.91C0.062,5.57 0.078,5.622 0.08,5.166C0.08,5.084 0.112,5.004 0.172,4.948C0.378,4.754 0.424,4.816 0.644,4.6C0.674,4.57 0.708,4.546 0.748,4.528C0.94,4.442 0.938,4.432 1.134,4.344C1.224,4.304 1.26,4.202 1.308,4.118C1.404,3.962 1.468,4 1.562,3.842C1.584,3.808 1.55,3.728 1.58,3.7C1.788,3.498 1.814,3.524 2.026,3.324C2.236,3.122 2.264,3.15 2.474,2.948C2.684,2.748 2.648,2.71 2.856,2.51C3.068,2.308 3.062,2.302 3.272,2.102C3.482,1.902 3.508,1.928 3.718,1.726C3.928,1.524 3.93,1.528 4.14,1.326C4.146,1.32 4.164,1.322 4.17,1.316C4.348,1.128 4.326,1.106 4.504,0.918C4.684,0.732 4.688,0.734 4.866,0.546C5.044,0.36 5.024,0.34 5.204,0.154C5.302,0.05 5.462,-0.01 5.604,0.002C5.85,0.006 5.85,0.028 6.096,0.024C6.238,0.012 6.392,0.054 6.492,0.156C6.686,0.356 6.686,0.356 6.88,0.552C7.074,0.752 7.05,0.776 7.244,0.974C7.44,1.172 7.452,1.16 7.644,1.358L8.034,1.754C8.226,1.954 8.236,1.946 8.43,2.144C8.622,2.342 8.604,2.36 8.8,2.558C8.992,2.758 9.014,2.736 9.208,2.934C9.402,3.132 9.376,3.158 9.568,3.358C9.762,3.554 9.756,3.564 9.95,3.76C10.142,3.96 10.154,3.948 10.34,4.152C10.404,4.256 10.504,4.356 10.622,4.38C10.726,4.4 10.82,4.442 10.902,4.508C10.966,4.56 11.038,4.556 11.092,4.608C11.292,4.798 11.314,4.776 11.516,4.968C11.608,5.056 11.666,5.19 11.67,5.318C11.672,5.614 11.658,5.614 11.66,5.91C11.664,6.208 11.698,6.208 11.698,6.504C11.69,6.762 11.698,6.97 11.438,6.97C11.12,6.97 10.872,6.952 10.552,6.952C10.234,6.952 10.234,6.958 9.916,6.958C9.786,6.958 9.646,6.934 9.556,6.842C9.352,6.638 9.362,6.628 9.156,6.424C8.95,6.22 8.978,6.19 8.774,5.986C8.568,5.782 8.556,5.796 8.35,5.59C8.144,5.388 8.156,5.376 7.95,5.172C7.744,4.968 7.702,5.012 7.496,4.808C7.386,4.698 7.338,4.644 7.286,4.586C7.21,4.504 7.108,4.322 6.966,4.19C6.876,4.104 6.594,3.948 6.526,3.894C6.378,3.77 5.93,3.546 5.774,3.632Z"/>
</svg>
