<svg viewBox="0 0 2781 450" xmlns="http://www.w3.org/2000/svg">
    <path d="M453.758,245.55C454.662,245.464 455.627,246.023 456.996,246.408C456.293,254.528 455.369,262.579 454.97,270.655C454.655,277.046 452.619,282.809 450.201,288.604C448.335,293.075 446.623,297.701 445.624,302.423C443.997,310.115 439.282,315.667 433.772,320.584C431.951,322.209 428.824,323.119 426.305,323.098C389.193,322.791 352.08,322.408 314.973,321.729C301.752,321.487 288.553,320.159 275.332,319.774C263.493,319.43 251.636,319.702 239.472,319.702C238.776,327.24 238.505,334.855 237.297,342.318C234.606,358.935 231.161,375.431 228.61,392.067C227.524,399.157 227.834,406.47 227.643,413.685C227.435,421.539 227.824,429.436 227.111,437.238C226.605,442.777 224.194,447.829 218.25,450L216.75,450C216.12,441.165 216.111,432.232 214.729,423.516C212.021,406.442 210.178,389.37 210.835,372.059C211.072,365.818 210.971,359.558 210.787,353.313C210.751,352.109 209.858,350.18 208.94,349.883C205.296,348.701 204.118,345.954 203.218,342.709C202.842,341.353 202.052,339.124 201.26,339.039C197.628,338.645 198.026,336.141 197.989,333.817C197.877,326.762 197.9,326.814 190.818,326.68C189.456,326.654 187.165,326.353 186.923,325.634C186.1,323.188 184.479,323.276 182.544,323.259C129.548,322.797 76.552,322.315 23.557,321.795C21.329,321.773 19.085,321.474 16.884,321.095C11.245,320.126 5.627,319.04 0,318L0,314.25C1.933,310.402 4.786,308.142 9.361,308.608C10.323,308.706 11.345,308.402 12.317,308.183C27.947,304.663 40.231,295.267 38.591,276.159C37.815,267.114 37.899,257.925 38.457,248.854C39.146,237.654 41.821,226.502 41.743,215.342C41.41,167.872 40.39,120.407 39.572,72.94C39.515,69.601 38.622,66.223 41.441,63.418C41.909,62.953 41.836,61.753 41.728,60.93C40.573,52.147 39.518,43.346 38.113,34.603C37.055,28.018 35.424,21.627 29.233,17.571C22.179,12.95 14.99,8.813 6.139,8.822C6.111,3.208 9.801,1.253 14.25,0L22.5,0C27.305,0.51 32.109,1.445 36.917,1.462C71.287,1.59 105.658,1.531 140.029,1.531L144.628,1.531C145.364,4.725 143.248,6.225 141.166,6.995C136.04,8.891 130.701,10.2 125.538,12.004C119.68,14.051 113.794,16.099 108.158,18.668C103.187,20.935 100.093,24.963 98.658,30.487C94.642,45.94 93.133,61.718 92.433,77.566C91.374,101.535 90.715,125.522 89.919,149.502C89.87,150.985 89.761,152.608 90.267,153.944C95.243,167.063 94.487,180.376 92.077,193.836C91.355,197.869 91.115,202.033 91.092,206.139C90.99,224.261 91.012,242.384 91.095,260.507C91.105,262.707 91.498,264.986 92.159,267.088C94.815,275.536 97.828,283.876 100.336,292.365C101.601,296.647 104.152,298.905 108.35,299.657C124.833,302.611 141.253,305.506 158.05,301.3C167.831,298.851 177.939,297.701 187.707,295.21C197.752,292.648 205.954,287.392 209.701,276.833C211.237,272.505 213.827,268.562 215.536,264.283C218.088,257.895 222.662,253.304 227.942,249.247C228.498,248.82 229.288,248.495 229.977,248.48C233.451,248.403 236.927,248.444 240.025,248.444C242.176,253.076 241.22,257.364 241.015,261.793C240.284,277.641 240.247,293.521 239.958,309.388C239.947,309.98 240.038,310.573 240.164,312.289C247.145,307.201 253.764,302.812 259.861,297.789C264.357,294.086 265.529,288.609 265.516,282.875C265.473,263.252 265.713,243.627 265.437,224.008C265.185,206.175 267.231,188.607 270.313,171.108C270.507,170.009 270.724,168.879 270.665,167.777C270.308,161.08 269.909,154.383 269.43,147.694C269.356,146.658 269.03,145.483 268.421,144.671C265.911,141.322 265.274,137.723 266.358,133.71C267.301,130.218 267.872,126.607 269.047,123.2C270.567,118.787 269.924,114.809 267.369,111.124C264.15,106.48 263.415,101.277 263.306,95.826C263.152,88.094 263.182,80.338 262.542,72.642C261.77,63.357 256.471,57.053 248.09,53.234C244.235,51.478 240.382,49.718 236.556,47.972C238.005,41.66 240.595,39.811 246.626,40.211C254.608,40.74 262.528,40.808 270.392,38.531C274.275,37.406 278.491,37.195 282.573,37.042C303.846,36.243 324.974,38.123 346.142,40.064C355.242,40.899 364.597,39.496 373.793,38.646C395.908,36.604 417.993,37.685 440.084,38.842C443.476,39.019 446.222,42.189 445.27,45.618C440.313,63.476 440.923,82.001 438.551,100.161C437.941,104.837 436.037,107.432 431.379,108.815C430.353,106.102 429.24,103.372 428.284,100.589C426.26,94.691 424.435,88.721 422.31,82.86C419.683,75.614 414.582,71.532 406.901,69.662C397.029,67.26 387.377,67.217 377.296,68.123C366.538,69.089 355.6,67.944 344.74,67.9C336.138,67.865 327.527,67.894 318.939,68.302C314.448,68.516 312.82,71.447 314.034,75.916C317.867,90.026 319.132,104.155 314.475,118.351C314.359,118.704 314.258,119.078 314.242,119.446C313.748,130.916 313.119,142.383 312.836,153.858C312.682,160.118 315.635,162.727 321.945,162.727C346.942,162.727 371.943,162.987 396.933,162.597C406.697,162.444 415.323,159.163 419.159,148.71C420.182,145.921 421.914,143.399 423.199,140.696C424.353,138.269 425.628,136.272 428.822,137.431C431.928,138.558 434.506,140.045 434.266,143.999C433.909,149.861 433.749,155.736 433.336,161.593C432.179,178.041 430.916,194.48 429.747,210.927C429.58,213.274 428.919,215.207 426.378,215.639C423.688,216.096 420.979,216.612 419.183,213.444C413.347,203.149 405.064,195.735 393.436,192.63C390.455,191.834 387.293,191.311 384.219,191.331C367.093,191.442 350.026,190.957 332.951,189.26C319.193,187.893 313.735,194.896 313.169,210.208C312.964,215.762 313.999,221.428 315,226.946C316.953,237.716 314.609,248.093 312.517,258.471C310.39,269.024 313.312,277.099 322.159,283.6C332.757,291.389 343.921,296.455 357.429,295.757C366.404,295.293 375.433,295.392 384.419,295.729C400.356,296.326 413.311,290.034 424.366,279.144C431.258,272.356 437.385,264.976 440.709,255.676C441.003,254.853 441.262,254.017 441.562,253.197C442.336,251.077 442.578,247.752 444.023,247.099C446.916,245.792 450.463,245.865 453.758,245.55ZM2772.08,26.554C2774.75,26.427 2777.52,28.296 2780.25,29.251L2780.25,32.251C2779.23,39.002 2777.54,45.733 2777.34,52.509C2776.89,67.495 2777.2,82.503 2777.2,97.502L2777.2,101.831L2769.22,103.151C2768.12,95.02 2766.99,87.16 2766.01,79.282C2764.86,70.046 2761.93,61.703 2753.99,56.104C2751.97,54.676 2749.23,53.327 2746.89,53.444C2739.81,53.8 2732.75,54.746 2725.72,55.74C2718.8,56.718 2711.92,57.983 2705.04,59.221C2699.55,60.209 2696.62,63.358 2695.48,68.839C2692.76,81.882 2693.83,94.972 2694.99,108.041C2697.06,131.406 2696.52,154.774 2694.34,178.05C2693.07,191.535 2694.84,204.71 2695.82,218.007C2696.01,220.62 2696.23,223.241 2696.21,225.858C2696.09,246.48 2695.41,267.115 2695.96,287.718C2696.23,297.591 2698.75,307.409 2700.33,317.239C2700.86,320.563 2701.82,323.822 2702.29,327.152C2703.66,336.793 2709.3,342.237 2718.6,344.316C2725.04,345.756 2731.45,347.302 2738.81,349.016C2736.87,352.268 2735.3,355.138 2733.45,357.822C2733.04,358.418 2731.68,358.567 2730.75,358.568C2690.13,358.602 2649.51,358.586 2608.88,358.629C2606.89,358.631 2605.77,357.994 2605.67,355.975C2605.57,354.065 2605.59,352.5 2608.1,351.672C2615.18,349.333 2622.34,347.055 2629.06,343.879C2632.88,342.07 2636.03,338.694 2639.25,335.762C2642.48,332.812 2644.34,329.052 2644.61,324.564C2645.24,314.096 2646.38,303.637 2646.52,293.165C2647.26,235.676 2647.75,178.185 2648.33,120.694C2648.35,119.456 2648.34,118.218 2648.34,116.87C2648.95,116.665 2649.39,116.412 2649.84,116.385C2656.54,115.978 2656.85,115.844 2654.14,109.865C2648.38,97.197 2647.19,83.677 2645.99,70.117C2645.68,66.539 2645.24,62.971 2644.82,59.092L2633.71,59.092C2624.59,59.092 2615.46,59.073 2606.34,59.096C2593.3,59.129 2579.5,70.182 2576.16,82.806C2574.44,89.302 2572.15,95.65 2569.98,102.021C2568.19,107.306 2564.24,109.263 2558.05,108.671C2557.88,104.73 2557.08,100.599 2557.65,96.669C2560.39,77.9 2563.17,59.121 2566.74,40.5C2567.55,36.249 2571.5,32.571 2574.16,28.74C2574.49,28.266 2575.8,28.405 2576.66,28.378C2606.05,27.424 2635.34,28.609 2664.65,31.083C2682.79,32.613 2701.09,32.895 2719.3,32.723C2728.45,32.636 2737.57,30.145 2746.73,29.001C2755.16,27.949 2763.61,26.955 2772.08,26.554ZM1514.64,81.442C1530.29,99.994 1538.14,121.632 1542.08,145.248C1546.39,171.061 1542.14,195.917 1535.67,220.749C1531.56,236.558 1526.16,251.723 1517.16,265.489C1506.83,281.281 1492.45,292.462 1476.42,301.809C1468.42,306.473 1460,309.824 1450.95,312.288C1431.74,317.522 1412.32,319.386 1392.5,319.258C1353.26,319.005 1314.01,319.183 1274.76,319.183L1270.38,319.183C1267.75,312.649 1268.76,309.231 1275.05,308.266C1282.98,307.052 1287.46,302.152 1291.45,296.212C1296.17,289.19 1299.23,281.721 1297,272.973C1296.71,271.848 1297.24,270.54 1297.19,269.324C1297.09,266.78 1296.85,264.241 1296.68,261.699C1296.54,259.636 1296.15,257.548 1296.34,255.514C1296.8,250.57 1298.02,245.655 1298.06,240.72C1298.44,202.102 1298.62,163.482 1298.86,124.863C1298.87,124.238 1299.06,123.521 1298.82,123.002C1294.9,114.422 1298.19,105.798 1298.58,97.193C1298.65,95.603 1298.94,93.73 1298.27,92.451C1295.44,87.134 1295.63,81.364 1295.26,75.674C1294.4,62.261 1286.62,53.429 1273.44,50.977C1271.23,50.567 1269.03,50.09 1266.83,49.661C1254.87,47.336 1246.53,51.562 1240.74,62.408C1235.38,72.437 1233.6,83.28 1232.19,94.374C1230.22,109.978 1230.99,125.548 1231.54,141.161C1232.01,154.27 1231.84,167.403 1232.38,180.509C1233.08,197.714 1231.68,215.055 1232.85,232.066C1234.78,260.199 1233.02,288.268 1234.44,316.586C1227.17,318.306 1220.05,320.36 1212.65,318.619C1210.74,318.168 1208.81,316.806 1207.38,315.374C1187.19,295.201 1169,273.308 1151.2,251.03C1143.27,241.1 1134.06,232.192 1125.43,222.815C1124.5,221.804 1123.44,220.862 1122.73,219.712C1107.17,194.678 1086.96,173.188 1069.48,149.619C1067.02,146.308 1064.29,143.198 1061.91,139.832C1056.55,132.22 1049.97,125.793 1043.15,119.521C1041.09,117.622 1040.07,114.62 1038.44,112.204C1035.61,107.97 1032.67,103.798 1029.73,99.519C1025.94,101.141 1024.73,103.861 1025.17,107.436C1025.89,113.135 1027.13,118.806 1027.36,124.52C1027.72,133.833 1027.31,143.173 1027.44,152.499C1027.93,187.362 1028.31,222.23 1029.2,257.083C1029.44,266.108 1030.67,275.27 1032.79,284.044C1036.14,297.917 1045.53,305.886 1059.78,308.097C1061.44,308.354 1063.41,309.722 1064.3,311.156C1066.99,315.489 1064.77,319.181 1059.79,319.182C1038.92,319.184 1018.05,318.992 997.177,319.278C988.973,319.391 980.782,320.565 972.586,321.266C970.193,321.471 966.99,322.992 965.9,320.095C965.06,317.862 965.539,314.673 966.513,312.366C967.269,310.577 969.51,309.11 971.422,308.181C975.114,306.389 979.043,305.088 982.867,303.566C991.48,300.138 997.38,294.098 998.981,284.889C1000.77,274.579 1002.1,264.167 1003.07,253.747C1003.43,249.891 1002.22,245.887 1001.72,241.95C1001.61,241.097 1001.16,240.129 1001.42,239.412C1003.68,233.12 1001.98,226.605 1002.41,220.217C1002.85,213.696 1001.43,207.063 1001.03,200.467C1000.77,196.12 1000.97,191.747 1000.77,187.394C1000.63,184.234 1000.17,181.088 999.839,177.937C999.788,177.453 999.423,176.827 999.613,176.519C1003.29,170.533 1000.55,164.304 1000.27,158.21C999.765,147.364 998.76,136.54 998.337,125.692C997.7,109.339 997.368,92.974 996.947,76.612C996.896,74.635 996.606,72.457 997.288,70.709C998.766,66.922 997.558,64.503 994.678,62.006C984.586,53.256 972.961,49.027 959.627,49.256C957.781,49.288 955.152,50.506 954.7,47.003C953.989,41.493 954.496,39.87 958.277,38.99C961.161,38.318 964.213,37.976 967.171,38.073C976.911,38.391 986.644,39.381 996.378,39.357C1008.73,39.327 1021.11,38.832 1033.44,37.994C1039.96,37.551 1044.57,39.438 1048.41,44.825C1068.06,72.392 1087.81,99.887 1107.75,127.244C1115.03,137.233 1123.01,146.71 1130.46,156.576C1131.67,158.174 1132.15,160.555 1132.34,162.632C1132.67,166.084 1132.12,169.639 1132.62,173.051C1133.36,178.011 1136.27,179.444 1140.94,177.721C1146.62,175.63 1147.37,175.851 1150.87,180.682C1151.17,181.086 1151.5,181.48 1151.7,181.929C1155.44,190.235 1161.76,196.338 1168.63,202.037C1174.72,207.091 1179.12,213.196 1180.57,221.311C1181.46,226.332 1183.06,226.866 1187.82,224.819C1192.37,230.151 1196.93,235.605 1201.65,240.915C1202.45,241.814 1204.12,242.767 1205.08,242.519C1207.12,242 1207.59,240.394 1207.12,238.092C1206.36,234.334 1206.01,230.459 1205.85,226.619C1205.53,219.01 1205.38,211.391 1205.33,203.775C1205.31,200.547 1206.06,197.298 1205.89,194.09C1205.51,187.018 1204.76,179.965 1204.15,172.905C1203.97,170.792 1203.56,168.682 1203.57,166.573C1203.62,153.638 1204.7,140.619 1203.52,127.803C1202.86,120.544 1202.85,113.24 1202.03,105.991C1201.54,101.626 1202.15,97.147 1202.05,92.725C1201.97,89.381 1201.73,86.019 1201.24,82.712C1200.45,77.28 1199.19,71.911 1198.51,66.468C1197.64,59.616 1194.09,54.783 1187.94,52.112C1183.06,49.99 1177.88,48.543 1172.65,46.734L1171.84,38.845C1174.27,38.437 1176.77,37.667 1179.27,37.662C1188.01,37.645 1196.77,37.612 1205.49,38.102C1220.87,38.967 1236.2,38.325 1251.55,37.458C1255.62,37.227 1260.17,36.913 1263.75,38.421C1268.24,40.311 1272.46,40.11 1276.91,39.829C1277.04,39.821 1277.19,39.79 1277.29,39.841C1284.78,43.646 1292.34,39.817 1299.87,39.923C1305.84,40.007 1311.29,40.556 1315.5,45.439C1315.92,45.924 1318.35,45.668 1318.57,45.181C1322.02,37.485 1328.03,37.165 1334.94,39.235C1337.91,40.125 1340.24,39.63 1342.79,37.516C1344.54,36.065 1347.38,35.591 1349.8,35.359C1355.39,34.824 1361.02,34.521 1366.63,34.452C1377.51,34.319 1388.42,35.026 1399.25,34.286C1422.17,32.719 1443.46,39.302 1464.65,46.432C1484.67,53.169 1501.02,65.297 1514.64,81.442ZM1529.49,159.928C1530.96,159.726 1532.31,158.648 1533.72,157.976L1533.31,156.57C1531.72,156.418 1530.15,156.182 1528.56,156.128C1518.57,155.791 1508.59,155.345 1498.6,155.272C1495.4,155.248 1494.37,154.062 1494.31,151.15C1494.27,149.43 1494.21,147.567 1493.55,146.027C1486.66,129.834 1479.81,113.594 1469.95,98.905C1462.6,87.953 1454.55,77.516 1442.3,71.56C1425.69,63.488 1407.99,59.641 1389.62,58.618C1378.82,58.017 1368.24,59.511 1357.63,61.416C1345.66,63.567 1345.22,63.299 1344.85,75.45C1344.34,91.796 1344.48,108.164 1344.39,124.522C1344.19,159.626 1343.96,194.73 1343.89,229.835C1343.88,238.936 1344.31,248.044 1344.78,257.137C1345.04,262.215 1345.39,267.352 1346.45,272.303C1347.19,275.735 1346.52,277.237 1343.22,278.315C1339.36,279.576 1335.31,280.898 1333.24,286.178C1336.73,287.302 1340.02,289.008 1343.45,289.36C1362.08,291.27 1380.71,293.226 1399.39,294.434C1419.81,295.754 1439.37,292.254 1456.27,279.892C1473.3,267.44 1483.14,249.979 1488.73,229.982C1493.3,213.604 1493.46,196.665 1494.65,179.861C1494.89,176.456 1494.23,173.542 1492.18,170.738C1489.57,167.162 1490.3,165.59 1494.6,164.556C1495.33,164.381 1496.06,164.223 1496.81,164.129C1507.7,162.743 1518.61,161.424 1529.49,159.928ZM2229.21,303.761C2232.86,305.292 2234.4,309.164 2233.35,312.784C2232.37,316.168 2228.3,318.412 2223.87,317.603C2220.08,316.911 2216.41,315.651 2212.63,314.88C2210.33,314.408 2207.93,314.174 2205.57,314.194C2186.45,314.354 2167.33,314.465 2148.22,314.904C2142.63,315.033 2137.07,316.33 2131.48,316.773C2128.66,316.996 2125.71,316.852 2122.96,316.233C2120.49,315.677 2118.2,314.084 2118.59,310.999C2118.98,307.935 2120.5,305.583 2123.96,305.213C2128.56,304.722 2133.14,304.078 2137.75,303.779C2144.71,303.327 2149.73,299.991 2152.08,293.552C2153.73,289.043 2155.02,284.207 2155.33,279.444C2156.09,267.601 2156.63,255.71 2156.44,243.851C2156.25,231.388 2155.13,218.939 2154.39,206.485C2153.71,195.265 2152.32,184.035 2152.51,172.831C2152.67,162.888 2149.55,153.63 2148.57,143.999C2147.6,134.491 2146.2,124.915 2149.25,115.39C2150.51,111.472 2150.82,107.238 2146.5,102.777C2144.33,106.51 2142.11,109.631 2140.6,113.067C2136.12,123.283 2132,133.654 2127.6,143.904C2123.23,154.083 2118.68,164.183 2114.24,174.334C2113.85,175.234 2113.63,176.238 2113.5,177.216C2112.9,181.73 2111.76,186.018 2108.78,189.625C2108.31,190.192 2107.8,190.878 2107.69,191.569C2106.4,199.807 2101.58,206.513 2098.2,213.852C2096.13,218.339 2094.66,223.097 2092.8,227.681C2089.4,236.05 2085.89,244.376 2082.46,252.731C2081.47,255.142 2080.65,257.627 2079.62,260.019C2077.21,265.603 2074.62,271.11 2072.28,276.722C2067.2,288.911 2062.22,301.138 2057.24,313.369C2056.36,315.523 2055.09,316.524 2052.61,316.859C2038.61,318.746 2036.58,317.779 2030.54,304.961C2023.04,289.06 2015.5,273.226 2009.59,256.574C2005.65,245.49 1998.92,235.427 1993.89,224.699C1979.85,194.794 1965.83,164.873 1952.28,134.746C1948.83,127.073 1947.38,118.519 1944.5,110.555C1943.13,106.765 1940.86,103.182 1938.41,99.946C1936.96,98.025 1934.37,96.964 1931.82,95.188C1929.6,100.364 1929.64,104.868 1930.11,109.441C1930.54,113.64 1931.22,117.841 1931.27,122.047C1931.74,159.714 1927.52,197.151 1925.67,234.705C1924.92,249.923 1925.04,265.19 1924.99,280.436C1924.97,288.447 1928.23,295.266 1934.12,300.642C1935.97,302.336 1938.41,303.507 1940.76,304.516C1943.96,305.892 1947.46,306.606 1950.55,308.167C1951.93,308.861 1953.43,310.964 1953.37,312.365C1953.32,313.749 1951.55,315.95 1950.2,316.228C1945.84,317.13 1941.34,317.641 1936.88,317.719C1920.16,318.012 1903.44,318.047 1886.72,318.238C1881.6,318.297 1876.48,318.598 1871.36,318.694C1868.14,318.755 1866.4,316.914 1866.07,313.341C1865.77,310.18 1867.62,308.993 1870.36,308.25C1874.63,307.094 1879.07,306.15 1883,304.228C1892.42,299.62 1897.09,291.333 1898.33,281.268C1899.75,269.758 1901.34,258.312 1904.46,247.116C1904.89,245.574 1905.02,243.904 1905.02,242.293C1904.97,221.406 1907.7,200.737 1909.6,179.99C1910.83,166.451 1910.89,152.801 1911.37,139.196C1911.86,124.986 1911.95,110.754 1912.81,96.568C1913.05,92.49 1915.19,88.48 1916.71,84.536C1919.05,78.478 1919.02,72.768 1915.81,66.903C1913.43,62.566 1911.83,57.807 1909.85,53.254C1908.65,50.511 1906.51,49.293 1903.53,48.812C1894.65,47.385 1885.81,45.753 1876.99,44.042C1874.83,43.622 1872.63,42.851 1870.73,41.751C1869.6,41.096 1868.5,39.527 1868.4,38.288C1868.34,37.525 1870.13,35.974 1871.2,35.87C1876.73,35.331 1882.31,34.673 1887.83,34.961C1893.92,35.278 1899.93,36.813 1906.02,37.369C1910.44,37.774 1914.94,37.398 1919.4,37.464C1929.87,37.619 1940.34,37.687 1950.79,38.086C1955.31,38.258 1957.35,42.037 1958.88,45.569C1962.85,54.694 1966.45,63.975 1970.3,73.15C1970.9,74.593 1971.87,76.006 1973,77.088C1977.99,81.875 1980.88,87.441 1980.78,94.565C1980.75,96.642 1981.83,98.824 1982.73,100.809C1984.93,105.687 1987.61,110.369 1989.62,115.323C2003.19,148.72 2016.59,182.181 2030.14,215.588C2033.65,224.246 2037.01,233.019 2043.41,240.14C2046.41,243.49 2048.2,247.396 2048.54,251.93C2048.6,252.67 2048.64,253.537 2049.03,254.104C2050.38,256.039 2051.88,257.867 2053.32,259.735C2055.12,258.251 2057.81,257.127 2058.58,255.225C2064.81,239.993 2070.59,224.577 2076.7,209.293C2080.95,198.641 2085.58,188.138 2089.91,177.513C2092.86,170.249 2094.81,162.454 2098.62,155.688C2102.82,148.225 2105.66,140.52 2108.05,132.375C2110.94,122.48 2116.67,113.913 2122.78,105.619C2124.48,103.307 2125.28,100.283 2126.28,97.51C2128.94,90.138 2131.34,82.67 2134.11,75.341C2137.28,66.956 2140.92,58.794 2142.5,49.826C2143.9,41.869 2149.31,36.895 2157.38,36.339C2162.46,35.989 2167.82,36.746 2172.76,38.09C2181.27,40.406 2189.77,40.217 2198.37,39.662C2201.11,39.485 2203.88,39.378 2206.56,38.841C2210.41,38.069 2214.18,36.917 2218,35.958C2220.15,35.418 2222.3,34.635 2224.47,34.51C2227.14,34.356 2229.83,34.829 2230.64,38.116C2231.47,41.457 2229.92,44.773 2226.68,46.114C2225.1,46.77 2223.32,47.295 2221.63,47.304C2212.5,47.356 2205.74,52.139 2199.16,57.761C2194.88,61.42 2192.73,65.684 2191.28,71.142C2187.11,86.883 2188.13,102.589 2190.07,118.39C2193.21,143.904 2192.91,169.501 2192.08,195.12C2191.65,208.148 2193.14,220.961 2195.49,233.82C2197.94,247.166 2199.06,260.767 2200.46,274.287C2201.39,283.256 2204.19,291.204 2210.38,297.979C2213.91,301.839 2217.92,303.408 2223.02,303.047C2225.07,302.903 2227.36,302.987 2229.21,303.761ZM939.023,252.996C940.503,246.458 942.418,244.962 949.196,245.317C950.793,245.401 952.373,245.816 954.392,246.15C953.96,251.593 953.415,256.895 953.144,262.212C952.592,273.014 950.854,283.477 945.841,293.257C944.499,295.873 943.785,298.904 943.265,301.83C941.917,309.407 937.391,315.039 931.999,319.922C929.997,321.735 926.725,323.087 924.043,323.07C881.307,322.792 838.553,322.884 795.848,321.504C776.271,320.871 756.718,319.127 737.087,319.312C735.489,319.327 733.877,317.757 731.456,316.501C734.88,313.986 737.325,312.085 739.877,310.339C744.617,307.099 749.501,304.064 754.176,300.733C760.185,296.451 763.018,290.572 762.973,283.092C762.851,263.221 763.053,243.347 762.894,223.476C762.755,206.164 764.638,189.076 767.632,172.063C768.03,169.806 767.638,167.393 767.482,165.061C767.233,161.331 766.585,157.604 766.638,153.883C766.698,149.593 767.531,145.497 764.385,141.565C763.126,139.992 763.461,136.746 763.813,134.372C764.379,130.562 765.311,126.759 766.549,123.11C768.054,118.675 767.34,114.691 764.812,111.029C761.905,106.819 761.086,102.153 760.937,97.205C760.68,88.725 760.692,80.212 759.892,71.779C759.054,62.958 753.728,57.014 745.825,53.32C741.876,51.474 737.888,49.711 733.944,47.922C735.862,41.246 738.015,39.85 744.6,40.251C752.33,40.72 760.003,40.792 767.628,38.602C771.633,37.452 775.969,37.203 780.174,37.044C801.447,36.24 822.573,38.144 843.741,40.07C852.964,40.909 862.441,39.439 871.765,38.598C893.756,36.613 915.716,37.69 937.682,38.851C941.35,39.045 943.94,42.459 942.588,46.471C938.885,57.45 939.465,68.919 938.019,80.146C937.174,86.709 936.347,93.299 936.052,99.901C935.834,104.781 933.67,107.488 928.641,108.791C926.343,101.955 924.069,95.127 921.746,88.317C920.901,85.841 920.071,83.345 919.001,80.962C916.253,74.842 911.571,71.262 904.923,69.839C895.747,67.876 886.809,66.845 877.204,67.929C865.634,69.235 853.776,67.912 842.042,67.88C833.566,67.858 825.078,67.876 816.615,68.285C812.058,68.505 810.288,71.398 811.479,75.729C815.431,90.089 816.371,104.357 812.024,118.935C810.727,123.284 811.943,128.342 811.716,133.061C811.374,140.165 810.459,147.254 810.383,154.355C810.318,160.314 813.263,162.726 819.215,162.726C844.462,162.727 869.714,163.034 894.952,162.567C904.367,162.393 912.831,159.089 916.548,148.912C917.609,146.006 919.506,143.417 920.771,140.573C921.925,137.977 923.359,136.363 926.436,137.479C929.413,138.559 931.919,139.978 931.709,143.764C931.35,150.252 931.16,156.751 930.703,163.231C929.587,179.054 928.335,194.868 927.202,210.689C927.026,213.141 926.506,215.217 923.729,215.697C920.809,216.202 918.19,216.264 916.372,213.002C910.655,202.74 902.24,195.636 890.776,192.581C887.68,191.756 884.38,191.305 881.178,191.329C864.302,191.456 847.487,190.923 830.661,189.277C817.288,187.97 811.69,193.861 810.712,209.27C810.384,214.43 811.377,219.739 812.257,224.896C814.085,235.598 812.643,246.039 810.405,256.465C810.353,256.709 810.279,256.949 810.22,257.192C807.499,268.495 810.611,277.286 820.4,284.184C830.709,291.448 841.423,296.344 854.37,295.75C863.599,295.327 872.873,295.398 882.11,295.726C898.058,296.292 910.958,289.903 922.002,279.012C928.806,272.303 934.788,264.977 938.139,255.845C938.482,254.912 938.804,253.963 939.023,252.996ZM714.142,40.558C715.874,40.601 717.609,40.565 719.8,40.565C719.8,44.135 720.108,47.476 719.748,50.743C718.093,65.729 716.252,80.694 714.476,95.666C714.446,95.913 714.273,96.2 714.35,96.396C717.023,103.205 713.144,110.316 715.32,117.153C716.32,120.295 713.994,121.668 711.901,123.017C709.483,124.577 706.824,126.463 704.002,124.605C702.824,123.83 701.937,121.507 702.091,120.008C702.778,113.276 703.774,106.564 701.208,100.026C699.897,96.685 698.585,93.272 696.716,90.234C685.756,72.419 669.207,63.031 648.979,60.122C628.278,57.145 607.616,57.52 587.378,63.699C576.873,66.906 567.696,72.429 558.785,78.865C537.571,94.186 528.046,116.034 524.985,140.678C522.917,157.327 523.245,174.375 523.768,191.205C524.071,200.941 526.865,210.603 528.608,220.286C528.797,221.337 529.456,222.304 529.895,223.312C531.219,226.35 532.531,229.394 533.869,232.426C534.811,234.559 535.452,236.928 536.814,238.754C541.147,244.566 544.754,250.701 548.062,257.198C555.088,270.997 566.826,280.334 580.139,287.768C593.151,295.035 607.742,297.103 622.026,299.871C633.135,302.024 644.442,303.412 655.727,304.273C660.124,304.609 664.705,302.584 669.196,301.604C671.157,301.176 672.108,300.019 672.07,297.896C672.044,296.416 672.421,294.925 672.66,293.446C673.121,290.602 672.181,288.456 669.405,287.476C664.554,285.763 663.372,282.155 663.538,277.429C663.949,265.705 664.598,253.961 664.277,242.25C664.05,233.955 663.791,225.192 661.018,217.556C657.627,208.215 653.211,198.155 641.742,195.556C635.828,194.216 629.64,193.948 623.553,193.552C617.137,193.134 616.654,192.744 617.635,185.2C623.9,184.904 630.35,184.172 636.766,184.398C645.997,184.724 655.199,185.802 664.422,186.423C666.113,186.537 667.893,186.178 669.554,185.741C684.677,181.763 700.021,183.786 716.446,183.445C715.58,188.427 715.662,193.105 713.93,196.969C708.636,208.775 707.191,221.28 706.686,233.856C706.079,248.945 706.205,264.079 706.502,279.183C706.651,286.776 707.804,294.357 708.664,301.925C708.956,304.498 708.561,306.128 705.719,306.86C690.513,310.776 675.439,315.274 660.114,318.631C650.42,320.754 640.378,322.07 630.47,322.214C621.058,322.35 611.611,320.546 602.19,319.496C582.914,317.349 564.216,312.503 547.371,303.02C523.96,289.84 504.408,272.043 491.076,248.339C487.571,242.107 485.639,234.974 483.127,228.203C480.23,220.395 477.251,212.604 474.747,204.667C472.088,196.237 473.175,187.604 474.331,179.032C474.513,177.678 474.838,176.217 474.529,174.943C471.796,163.666 474.655,152.882 477.217,142.058C478.797,135.381 480.272,128.678 481.916,122.017C482.386,120.111 483.013,118.148 484.023,116.487C490.7,105.509 497.437,94.566 504.309,83.709C505.85,81.274 507.46,78.845 511.466,80.852C513.62,81.931 516.488,80.855 518.235,78.247C521.194,73.831 524.063,69.273 527.607,65.351C532.115,60.363 537.13,55.802 542.208,51.381C543.594,50.175 546.03,50.235 547.913,49.526C550.036,48.726 552.305,48.024 554.106,46.721C556.81,44.765 559.293,43.475 562.653,45.149C563.61,45.626 565.072,45.4 566.219,45.136C577.405,42.556 588.564,39.856 599.755,37.301C602.166,36.751 604.678,36.392 607.145,36.38C623.768,36.301 640.408,35.865 657.008,36.49C670.089,36.982 683.109,38.949 696.176,40.017C702.14,40.504 708.151,40.411 714.142,40.558ZM2534.17,183.212C2548.57,194.662 2556.63,209.006 2559.25,227.51C2562.06,247.287 2557.34,265.322 2547.27,281.129C2537.57,296.361 2524.07,308.632 2505.38,313.858C2477.68,321.603 2459.03,322.151 2437.82,320.161C2439.55,313.877 2436.96,309.911 2430.75,308.408C2426.29,307.328 2421.73,306.135 2417.58,310.255L2423.59,313.266C2422.95,316.345 2420.93,317.605 2418.2,317.222C2402.7,315.039 2387.41,311.895 2373.72,303.845C2371.84,302.742 2370.56,299.766 2370,297.419C2366.3,282 2365.82,266.254 2366.01,250.498C2366.12,241.915 2366.82,233.338 2367.25,224.735C2375.88,223.323 2375.78,223.328 2376.18,230.926C2376.45,236.131 2377.06,241.318 2377.45,246.518C2378.27,257.271 2384.96,264.973 2390.95,273.128C2397.04,281.413 2405.28,286.086 2414.97,288.645C2425.55,291.439 2436,295.419 2446.76,296.585C2454.14,297.386 2461.48,298.427 2468.83,299.462C2469.61,299.573 2470.71,299.361 2471.28,298.86C2477.78,293.088 2486.13,292.665 2494.01,291.145C2499.92,290.002 2503.58,286.828 2505.88,281.513C2507.17,278.541 2508.91,275.758 2510.11,272.753C2512.48,266.784 2515.52,260.879 2516.6,254.654C2517.88,247.3 2515.16,240.315 2511.79,233.506C2506.59,222.99 2497,217.411 2487.99,211.39C2480.27,206.229 2471.53,202.613 2463.33,198.154C2447.76,189.696 2432.58,180.457 2416.64,172.791C2401.53,165.523 2392.82,152.319 2382.84,140.136C2381.94,139.036 2381.96,137.125 2381.7,135.565C2381.33,133.241 2381.82,130.415 2380.66,128.647C2377.11,123.246 2377.07,117.243 2377.16,111.339C2377.22,107.812 2378.33,104.381 2376.14,101.086C2375.86,100.671 2376.36,99.689 2376.58,98.998C2378.58,92.856 2380.94,86.806 2382.52,80.558C2384.32,73.412 2390.26,69.747 2394.8,64.932C2395.41,64.289 2397.89,65.413 2399.07,65.638C2409.01,49.959 2423.45,39.929 2440.98,35.073C2456.21,30.854 2472.05,30.538 2487.84,32.533C2498.12,33.832 2508.42,35.373 2518.76,35.803C2526.04,36.106 2533.4,34.806 2540.72,34.071C2546.34,33.506 2548.97,35.728 2548.32,41.222C2545.82,62.467 2545,83.802 2544.66,105.168C2544.63,107.041 2544.33,108.919 2544.41,110.784C2544.57,114.352 2542.72,115.566 2539.44,115.815C2536.4,116.044 2535.21,115.251 2534.73,111.909C2533.6,104.035 2532.67,95.947 2530.06,88.504C2523.47,69.67 2509.34,60.091 2489.67,58.559C2481.58,57.929 2473.42,57.083 2465.35,57.482C2446.6,58.407 2432.08,66.881 2423.74,84.06C2421.86,87.954 2421.3,93.2 2422.03,97.499C2423.21,104.422 2425.91,111.098 2428.14,117.821C2428.5,118.896 2429.74,119.69 2430.6,120.582C2445.58,136.033 2463.84,146.331 2483.49,154.548C2501.51,162.084 2518.77,170.957 2534.17,183.212ZM2325.05,105.193C2324.74,144.31 2324.6,183.428 2324.09,222.542C2324.02,227.919 2323.84,233.248 2323.96,238.649C2324.26,251.367 2323.17,264.111 2323.07,276.848C2322.98,287.738 2324.25,298.483 2327.74,308.935C2329.71,314.824 2333.58,318.675 2338.81,321.487C2344.81,324.714 2351.1,326.987 2358.01,327.185C2358.72,327.206 2359.43,327.45 2360.72,327.705C2360.02,330.121 2359.64,332.463 2358.62,334.492C2358.21,335.317 2356.44,335.866 2355.29,335.855C2344.67,335.753 2334.05,335.249 2323.44,335.348C2305.37,335.516 2287.3,336.038 2269.22,336.406C2261.23,336.569 2253.23,336.748 2245.23,336.861C2242.14,336.904 2239.39,336.331 2239.18,332.394C2238.98,328.578 2240.41,326.868 2244.46,326.134C2248.39,325.422 2252.33,324.759 2256.26,324.018C2262.62,322.818 2267.49,319.93 2268.69,312.909C2268.85,311.946 2269.3,311.031 2269.71,309.847L2279.05,310.985C2280.27,305.405 2282.8,299.965 2279.89,294.09C2279.62,293.544 2279.2,292.786 2279.38,292.346C2281.95,286.094 2278,281.508 2275.23,276.785C2273.38,273.632 2273,270.849 2274.09,267.332C2275.43,263.034 2277.68,258.673 2275.52,253.908C2275.33,253.475 2275.66,252.674 2275.96,252.162C2281,243.388 2278.61,234.555 2276.07,225.782C2275.47,223.736 2274.35,221.97 2275.98,219.881C2276.41,219.32 2276.17,218.194 2276.17,217.328C2276.17,200.706 2276.06,184.083 2276.22,167.462C2276.27,162.894 2277.3,158.344 2277.56,153.768C2277.7,151.348 2276.99,148.892 2276.95,146.447C2276.73,133.969 2276.61,121.488 2276.43,109.008C2276.42,108.018 2276.43,106.907 2276,106.063C2272.64,99.37 2272.61,91.888 2270.83,84.826C2270.62,83.979 2270.56,83.029 2270.12,82.314C2266.94,77.118 2263.7,71.958 2260.45,66.812C2258.07,63.057 2254.72,60.728 2250.37,59.605C2246.66,58.649 2243.06,57.266 2239.52,56.108C2239.52,55.389 2239.43,54.99 2239.54,54.657C2242.05,46.932 2240.04,47.565 2248.33,48.543C2250.56,48.806 2252.82,48.821 2255.07,48.804C2289.06,48.554 2323.05,48.279 2357.05,48.012C2358.53,48 2360.02,48.011 2361.99,48.011C2361.11,50.936 2360.47,53.578 2359.46,56.07C2359.14,56.858 2357.9,57.524 2356.96,57.769C2352.74,58.869 2348.44,59.701 2344.22,60.814C2340.19,61.877 2337.48,64.461 2335.07,67.971C2328.78,77.131 2328.62,88.026 2325.83,98.164C2325.21,100.41 2325.07,102.843 2325.05,105.193ZM1750.58,270.35C1751.41,279.467 1753.07,281.382 1761.65,283.893C1760.43,287.668 1758.13,289.281 1753.91,289.159C1743.56,288.862 1733.2,289.062 1722.96,289.062C1721.22,285.328 1721.71,283.072 1725.66,281.581C1730.3,279.833 1730.97,275.11 1731.65,271.049C1732.38,266.784 1732.24,262.341 1732.17,257.982C1732.09,253.286 1731.64,248.597 1731.33,243.549C1730.12,243.901 1729.23,244.298 1728.3,244.407C1723.28,244.996 1718.27,245.788 1713.23,245.984C1707.24,246.217 1701.24,245.803 1695.25,245.893C1692.08,245.941 1690.01,248.677 1690.33,251.662C1690.68,254.84 1690.94,258.029 1691.16,261.219C1691.29,262.962 1691.28,264.716 1691.31,266.465C1691.42,275.084 1692.23,283.228 1703.87,284.105C1701.83,287.807 1699.25,289.852 1695.67,289.811C1684.81,289.684 1673.94,289.309 1663.08,289.01C1662.61,288.997 1662.14,288.784 1660.51,288.365C1662.18,286.451 1663.16,284.376 1664.74,283.712C1670.58,281.244 1672.53,276.678 1672.54,270.866C1672.55,262.301 1672.41,253.735 1672.48,245.171C1672.5,242.959 1673.03,240.75 1673.36,238.543C1673.44,237.933 1673.88,237.244 1673.7,236.746C1670.83,228.431 1672.25,219.801 1671.83,211.315C1671.61,206.902 1668.44,204.897 1665.39,202.746C1664.4,202.045 1663.19,201.649 1661.87,201.009C1662.95,197.884 1664.04,195.565 1668.15,195.536C1677.13,195.471 1686.11,194.485 1695.08,194.65C1698.1,194.706 1701.08,197.105 1705.04,198.861C1701.5,200.714 1699.12,201.992 1696.71,203.214C1693.27,204.955 1691.41,207.773 1691.3,211.572C1691.11,217.94 1690.99,224.315 1691.09,230.683C1691.11,231.632 1692.3,232.94 1693.27,233.401C1694.44,233.953 1695.95,233.882 1697.31,233.892C1703.43,233.935 1709.56,233.75 1715.68,233.959C1721.09,234.144 1726.48,234.742 1732.76,235.225C1732.85,233.511 1733.27,230.996 1733.06,228.536C1732.63,223.564 1731.5,218.636 1731.32,213.665C1731.09,207.411 1727.92,203.464 1722.79,200.583C1721.72,199.982 1720.72,199.269 1718.8,198.042C1721.29,196.78 1723.16,195.012 1725.04,195.015C1736,195.034 1746.97,195.419 1757.93,195.832C1759.03,195.874 1760.1,196.934 1761.19,197.521C1760.31,198.755 1759.67,200.718 1758.51,201.098C1753.2,202.839 1751.56,206.39 1750.91,211.751C1750.26,216.995 1750.28,222.08 1750.4,227.313C1750.62,236.788 1749.93,246.279 1749.86,255.765C1749.82,260.626 1750.13,265.505 1750.58,270.35ZM1780.45,161.531C1774.37,164.072 1771.44,163.56 1766.59,158.362C1750.73,141.358 1736.7,122.834 1722.34,104.59C1720.19,101.861 1717.69,99.405 1714.72,96.115C1714.53,98.912 1714.27,100.799 1714.31,102.681C1714.59,116.924 1714.84,131.169 1715.28,145.407C1715.47,151.449 1717.49,153.792 1723.28,155.538C1725.74,156.281 1726.67,157.855 1726.42,160.306C1726.16,162.947 1724.31,162.819 1722.33,162.856C1713.23,163.025 1704.12,163.363 1695.02,163.446C1693.63,163.459 1691.19,162.615 1691.07,161.875C1690.82,160.291 1691.71,158.498 1692.26,156.831C1692.39,156.444 1692.97,156.055 1693.42,155.946C1703.62,153.443 1702.72,145.279 1702.58,137.684C1702.44,130.11 1701.82,122.546 1701.6,114.972C1701.28,103.793 1701.17,92.608 1700.84,81.429C1700.81,80.413 1700.01,78.861 1699.18,78.531C1696.34,77.402 1693.27,76.871 1690.41,75.77C1689.2,75.302 1687.46,73.967 1687.48,73.065C1687.51,71.701 1688.73,70.236 1689.76,69.091C1690.2,68.589 1691.42,68.662 1692.28,68.658C1700.02,68.618 1707.76,68.483 1715.49,68.721C1717.12,68.771 1719.24,69.833 1720.21,71.121C1729.41,83.269 1738.47,95.526 1747.38,107.882C1748.35,109.221 1748.18,111.38 1748.53,113.159L1749.14,112.422C1750.98,113.844 1752.93,115.138 1754.61,116.726C1756.13,118.164 1757.27,119.995 1758.71,121.527C1761.7,124.711 1764.78,127.812 1768.36,131.495C1768.36,126.948 1768.49,122.668 1768.33,118.397C1767.95,107.837 1767.47,97.28 1766.95,86.726C1766.86,84.868 1766.31,83.036 1766.11,81.178C1765.79,78.372 1764.45,76.573 1761.6,75.968C1760.26,75.683 1758.96,75.223 1757.64,74.844C1756.85,69.132 1757.36,68.436 1763.28,68.355C1770.89,68.251 1778.5,68.258 1786.1,68.358C1791.63,68.431 1791.92,68.852 1791.55,74.476C1791.38,74.633 1791.23,74.884 1791.03,74.932C1783.34,76.834 1780.87,79.436 1780.62,87.541C1780.29,98.264 1780.47,109.003 1780.45,119.735C1780.44,133.584 1780.45,147.433 1780.45,161.531ZM1843.67,261.944C1846.69,262.165 1845.93,264.576 1845.61,266.207C1844.47,272.039 1843.35,277.9 1841.7,283.6C1840.32,288.395 1836.88,290.54 1831.85,290.453C1812.75,290.12 1793.65,289.773 1774.55,289.265C1773,289.224 1771.48,287.929 1768.9,286.733C1772.14,284.407 1774.25,282.72 1776.53,281.3C1779.34,279.548 1780.47,277.249 1780.55,273.875C1780.85,262.533 1781.57,251.203 1781.9,239.862C1781.99,236.801 1781.31,233.716 1780.95,230.644C1780.9,230.155 1780.48,229.574 1780.64,229.212C1783.11,223.482 1779.11,218.117 1779.74,212.501C1780.34,207.195 1778.28,203.573 1773.02,201.966C1772.22,201.721 1771.5,201.19 1770.66,200.75C1771.61,197.198 1773.34,195.44 1777.28,195.525C1781.95,195.626 1786.65,194.587 1791.34,194.592C1806.42,194.609 1821.51,194.865 1836.59,195.059C1841.36,195.121 1842.36,196.665 1841.57,201.383C1840.77,206.177 1840.38,211.042 1839.87,215.882C1839.44,219.906 1839.48,219.913 1834.83,221.918C1833.98,219.629 1833.09,217.361 1832.28,215.065C1830.01,208.595 1829.65,208.639 1822.81,208.013C1816.02,207.392 1809.12,207.992 1802.26,208.095C1801.56,208.106 1800.85,208.384 1800.76,208.403L1799.51,234.729C1800.53,234.839 1801.59,235.05 1802.66,235.055C1809.53,235.085 1816.4,235.011 1823.27,235.095C1826.88,235.14 1829.51,234.015 1830.91,230.392C1831.61,228.573 1832.16,226.131 1835.29,227.081C1838.26,227.978 1838.58,230.051 1838.38,232.634C1837.9,238.984 1837.64,245.355 1836.97,251.683C1836.81,253.1 1835.51,255.284 1834.42,255.488C1833.05,255.747 1830.76,254.772 1829.92,253.584C1827.12,249.607 1823.52,247.987 1818.77,248.004C1814.03,248.02 1809.29,247.605 1804.55,247.435C1800.73,247.298 1799.4,248.768 1799.42,252.506C1799.45,257.964 1799.13,263.429 1799.34,268.877C1799.4,270.629 1800.19,273.178 1801.46,273.897C1804.71,275.724 1808.35,277.009 1811.98,277.946C1814.21,278.52 1816.7,278.068 1819.08,278.049C1828.1,277.976 1834.47,273.452 1837.32,264.842C1838.46,261.385 1841.1,261.756 1843.67,261.944ZM1650.75,195.122C1652.09,195.545 1654.01,197.229 1653.99,198.315C1653.8,206.276 1653.19,214.227 1652.68,222.694L1647.31,223.454C1646.87,220.214 1646.54,217.271 1646.06,214.353C1645.06,208.238 1643.42,207.007 1637.41,207.717C1636.05,207.877 1634.7,208.134 1633.35,208.354C1626.28,209.497 1626.35,209.622 1626.41,216.879C1626.5,226.732 1625.93,236.602 1626.32,246.438C1626.71,256.242 1628,266.008 1628.79,275.8C1629.1,279.594 1631.34,281.247 1634.76,281.865C1635.62,282.02 1636.58,282.038 1637.29,282.461C1638.45,283.152 1639.45,284.124 1640.52,284.977C1639.18,286.518 1637.87,289.362 1636.49,289.398C1623.51,289.736 1610.51,289.653 1597.52,289.486C1596.48,289.473 1594.98,288.143 1594.52,287.07C1593.78,285.341 1594.75,284.022 1596.73,283.626C1597.58,283.455 1598.39,283.112 1599.22,282.844C1605.43,280.84 1607.09,278.895 1607.25,272.356C1607.61,257.498 1607.19,242.591 1608.31,227.796C1608.78,221.457 1607.18,215.665 1607.18,209.247C1602.94,209.247 1598.9,208.725 1595.05,209.39C1590.98,210.094 1588.7,213.143 1587.71,217.38C1586.1,224.273 1584.99,225.074 1578.87,224.853C1578.87,222.742 1578.62,220.535 1578.92,218.403C1579.69,212.843 1580.67,207.313 1581.62,201.779C1582.4,197.199 1584.18,195.508 1588.8,195.646C1599.14,195.955 1609.49,196.806 1619.84,196.798C1628.42,196.791 1637,195.874 1645.58,195.352C1647.32,195.246 1649.21,194.632 1650.75,195.122ZM1645.03,152.302C1645.2,151.523 1647.11,151.116 1648.81,150.232C1647.93,147.744 1646.47,145.104 1646.18,142.343C1645.88,139.432 1646.69,136.402 1647.06,133.429C1647.19,132.344 1647.66,131.272 1647.64,130.2C1647.47,120.398 1647.63,110.563 1646.81,100.811C1646.4,95.913 1644.74,90.892 1642.54,86.468C1641.45,84.249 1637.9,83.242 1635.05,81.426C1635.6,76.448 1635.6,76.577 1640.77,76.596C1651.88,76.636 1663,76.528 1674.11,76.483C1675.47,76.477 1676.83,76.482 1678.4,76.482C1678.09,80.372 1677.42,83.286 1672.84,84.017C1671.08,84.298 1668.98,86.328 1668.22,88.076C1667.05,90.75 1666.47,93.862 1666.4,96.805C1666.04,112.528 1665.57,128.263 1665.83,143.981C1666,154.161 1667.4,155.633 1677.59,157.168C1677.62,162.828 1677.18,163.294 1671.99,163.323C1661.4,163.383 1650.82,163.468 1640.23,163.54C1637.93,163.555 1635.45,163.69 1635.04,160.607C1634.63,157.425 1636.92,156.543 1639.43,156.182C1641.98,155.817 1644.34,155.569 1645.03,152.302Z"/>
</svg>
