<?xml version="1.0" encoding="UTF-8" standalone="no"?>
<!DOCTYPE svg PUBLIC "-//W3C//DTD SVG 1.1//EN" "http://www.w3.org/Graphics/SVG/1.1/DTD/svg11.dtd">
<svg width="100%" height="100%" viewBox="0 0 34 35" version="1.1" xmlns="http://www.w3.org/2000/svg" xmlns:xlink="http://www.w3.org/1999/xlink" xml:space="preserve" xmlns:serif="http://www.serif.com/" style="fill-rule:evenodd;clip-rule:evenodd;stroke-linejoin:round;stroke-miterlimit:2;">
    <g>
        <path d="M15.498,31.847L14.284,31.071L13.19,29.595L12.3,28.833L11.248,27.915L10.198,26.893L9.182,25.943L8.172,24.859L7.178,24.047L6.2,22.581L5.292,22.111L4.188,20.683L3.264,20.035L2.166,18.941L1.394,17.485L1.146,16.985L1.446,16.511L2.134,15.419L2.994,14.209L4.398,13.145L5.224,12.251L6.33,11.251L7.376,10.305L8.31,9.341L9.266,8.323L10.028,7.267L11.494,6.231L11.986,5.313L13.456,4.223L14.194,3.329L15.264,2.287L16.576,1.495L17.122,1.181L17.642,1.539L18.68,2.255L19.862,3.065L21,4.189L22.006,5.099L23.026,6.213L24.006,7.075L24.98,8.431L25.856,9.323L26.852,10.227L27.884,11.245L28.924,12.005L29.994,13.293L30.914,14.229L31.936,15.007L32.154,15.175L32.254,15.433L32.744,16.679L32.914,17.117L32.688,17.529L32.068,18.647L31.086,19.893L29.832,20.937L28.934,21.867L28.034,22.889L26.974,23.929L25.76,24.873L24.962,25.803L24.13,26.875L22.692,27.889L21.892,28.767L20.812,29.769L20.042,30.771L18.806,31.831L17.566,32.549L17.038,32.847L16.53,32.517C16.186,32.293 15.842,32.071 15.498,31.847Z" style="fill:white;fill-rule:nonzero;"/>
        <path d="M31.936,16.007L32.552,14.22L32.759,14.379L32.154,16.175L33.089,14.821L33.184,15.066L33.674,16.313L32.744,17.679L32.586,17.571L32.587,17.573L32.744,17.679L33.681,16.33L33.842,16.745L32.914,18.117L33.784,17.61L33.57,18.001L32.688,18.529L32.129,17.574L32.122,17.569L32.688,18.529L33.562,18.014L32.903,19.203L31.806,20.595L30.513,21.671L29.669,22.545L28.76,23.577L27.633,24.683L26.453,25.601L25.737,26.436L24.828,27.606L23.357,28.643L22.603,29.472L21.554,30.445L20.772,31.463L19.387,32.65L18.062,33.417L17.001,34.016L15.984,33.355L14.956,32.688L13.59,31.815L12.454,30.281L11.646,29.59L10.57,28.651L9.507,27.617L8.474,26.65L7.486,25.591L6.429,24.727L5.511,23.351L4.636,22.898L3.489,21.415L2.619,20.804L1.353,19.543L0.504,17.942L0,16.926L0.6,15.977L1.303,14.862L2.268,13.505L3.723,12.402L4.52,11.539L5.659,10.509L6.681,9.586L7.586,8.651L8.493,7.686L9.314,6.547L10.724,5.551L11.21,4.643L12.762,3.492L13.457,2.651L14.649,1.49L16.068,0.634L17.17,0L18.209,0.716L19.246,1.431L20.501,2.291L21.687,3.462L22.712,4.389L23.727,5.498L24.752,6.399L25.747,7.785L26.549,8.602L27.539,9.501L28.533,10.481L29.614,11.271L30.736,12.622L31.577,13.477L32.541,14.211L31.936,16.007ZM31.82,17.055L31.83,17.062L31.824,17.052L31.813,17.045L31.323,15.799L31.33,15.803L30.308,15.025L30.251,14.981L29.251,13.964L28.234,12.739L27.234,12.009L26.164,10.954L25.162,10.044L24.212,9.077L23.26,7.751L22.325,6.928L21.3,5.809L20.313,4.916L19.223,3.839L18.113,3.079L17.074,2.362L15.879,3.084L14.93,4.008L14.149,4.954L12.761,5.983L12.264,6.912L10.741,7.988L10.039,8.961L9.033,10.031L8.071,11.025L7,11.993L5.928,12.963L5.072,13.889L3.72,14.913L2.965,15.976L2.292,17.045L2.979,18.339L3.909,19.266L4.886,19.951L5.948,21.325L6.889,21.812L7.926,23.367L8.857,24.128L9.89,25.236L10.888,26.17L11.926,27.18L12.954,28.077L13.926,28.909L14.978,30.328L16.04,31.007L17.074,31.678L18.225,31.012L19.312,30.08L20.07,29.093L21.181,28.063L22.026,27.135L23.431,26.144L24.187,25.171L25.066,24.145L26.315,23.175L27.307,22.201L28.198,21.189L29.15,20.203L30.365,19.192L31.232,18.092L31.813,17.045L31.82,17.055ZM32.254,16.433L31.606,15.987L31.592,15.982L32.254,16.433Z" style="fill:rgb(196,193,205);"/>
        <path d="M25.313,15.473L24.799,14.535L24.631,13.365L24.405,12.211L23.325,11.001L22.287,9.733L22.067,9.535L20.343,8.791L19.179,8.727L17.935,8.675L17.935,18.635L18.751,20.025L18.191,21.565L17.935,21.719L17.935,25.847L18.025,25.835L18.537,25.861L18.995,24.703L19.245,23.843L20.187,23.611L20.543,24.783L21.899,24.095L22.375,22.445L23.013,21.387L23.987,20.625L25.035,19.981L25.495,19.385L25.737,17.871L25.931,16.365L25.313,15.473ZM22.355,18.367L21.973,18.559C21.973,18.559 21.749,18.669 21.611,18.743C21.469,18.819 21.163,18.969 21.163,18.969L20.421,19.343L19.029,18.065L20.141,16.035L22.567,15.595L23.069,16.925L22.355,18.367Z" style="fill:rgb(58,49,89);fill-rule:nonzero;"/>
        <path d="M16.609,28.647L16.073,28.665L15.659,27.475L15.201,26.303L14.685,25.157L14.133,24.023L13.645,22.863L13.655,22.559L14.743,21.739L14.525,21.227L13.407,20.763L12.361,20.139L11.207,19.757L10.153,19.153L8.965,18.851L7.971,18.105L6.747,17.883L5.661,17.345L5.685,16.675L6.901,16.301L8.033,15.715L9.269,15.385L10.449,14.919L11.593,14.363L12.721,13.763L12.927,13.719L13.473,12.555L13.775,11.299L14.215,10.095L14.823,8.953L15.113,7.693L15.655,6.525L16.017,5.291L16.691,5.297L16.609,28.647Z" style="fill:rgb(221,147,40);fill-rule:nonzero;"/>
    </g>
</svg>
