<?xml version="1.0" encoding="UTF-8" standalone="no"?>
<!DOCTYPE svg PUBLIC "-//W3C//DTD SVG 1.1//EN" "http://www.w3.org/Graphics/SVG/1.1/DTD/svg11.dtd">
<svg width="100%" height="100%" viewBox="0 0 34 35" version="1.1" xmlns="http://www.w3.org/2000/svg" xmlns:xlink="http://www.w3.org/1999/xlink" xml:space="preserve" xmlns:serif="http://www.serif.com/" style="fill-rule:evenodd;clip-rule:evenodd;stroke-linejoin:round;stroke-miterlimit:2;">
    <g>
        <path d="M15.498,31.847L14.284,31.071L13.19,29.595L12.3,28.833L11.248,27.915L10.198,26.893L9.182,25.943L8.172,24.859L7.178,24.047L6.2,22.581L5.292,22.111L4.188,20.683L3.264,20.035L2.166,18.941L1.394,17.485L1.146,16.985L1.446,16.511L2.134,15.419L2.994,14.209L4.398,13.145L5.224,12.251L6.33,11.251L7.376,10.305L8.31,9.341L9.266,8.323L10.028,7.267L11.494,6.231L11.986,5.313L13.456,4.223L14.194,3.329L15.264,2.287L16.576,1.495L17.122,1.181L17.642,1.539L18.68,2.255L19.862,3.065L21,4.189L22.006,5.099L23.026,6.213L24.006,7.075L24.98,8.431L25.856,9.323L26.852,10.227L27.884,11.245L28.924,12.005L29.994,13.293L30.914,14.229L31.936,15.007L32.154,15.175L32.254,15.433L32.744,16.679L32.914,17.117L32.688,17.529L32.068,18.647L31.086,19.893L29.832,20.937L28.934,21.867L28.034,22.889L26.974,23.929L25.76,24.873L24.962,25.803L24.13,26.875L22.692,27.889L21.892,28.767L20.812,29.769L20.042,30.771L18.806,31.831L17.566,32.549L17.038,32.847L16.53,32.517C16.186,32.293 15.842,32.071 15.498,31.847Z" style="fill:white;fill-rule:nonzero;"/>
        <path d="M31.936,16.007L32.552,14.22L32.759,14.379L32.154,16.175L33.089,14.821L33.184,15.066L33.674,16.313L32.744,17.679L32.586,17.571L32.587,17.573L32.744,17.679L33.681,16.33L33.842,16.745L32.914,18.117L33.784,17.61L33.57,18.001L32.688,18.529L32.129,17.574L32.122,17.569L32.688,18.529L33.562,18.014L32.903,19.203L31.806,20.595L30.513,21.671L29.669,22.545L28.76,23.577L27.633,24.683L26.453,25.601L25.737,26.436L24.828,27.606L23.357,28.643L22.603,29.472L21.554,30.445L20.772,31.463L19.387,32.65L18.062,33.417L17.001,34.016L15.984,33.355L14.956,32.688L13.59,31.815L12.454,30.281L11.646,29.59L10.57,28.651L9.507,27.617L8.474,26.65L7.486,25.591L6.429,24.727L5.511,23.351L4.636,22.898L3.489,21.415L2.619,20.804L1.353,19.543L0.504,17.942L0,16.926L0.6,15.977L1.303,14.862L2.268,13.505L3.723,12.402L4.52,11.539L5.659,10.509L6.681,9.586L7.586,8.651L8.493,7.686L9.314,6.547L10.724,5.551L11.21,4.643L12.762,3.492L13.457,2.651L14.649,1.49L16.068,0.634L17.17,0L18.209,0.716L19.246,1.431L20.501,2.291L21.687,3.462L22.712,4.389L23.727,5.498L24.752,6.399L25.747,7.785L26.549,8.602L27.539,9.501L28.533,10.481L29.614,11.271L30.736,12.622L31.577,13.477L32.541,14.211L31.936,16.007ZM31.82,17.055L31.83,17.062L31.824,17.052L31.813,17.045L31.323,15.799L31.33,15.803L30.308,15.025L30.251,14.981L29.251,13.964L28.234,12.739L27.234,12.009L26.164,10.954L25.162,10.044L24.212,9.077L23.26,7.751L22.325,6.928L21.3,5.809L20.313,4.916L19.223,3.839L18.113,3.079L17.074,2.362L15.879,3.084L14.93,4.008L14.149,4.954L12.761,5.983L12.264,6.912L10.741,7.988L10.039,8.961L9.033,10.031L8.071,11.025L7,11.993L5.928,12.963L5.072,13.889L3.72,14.913L2.965,15.976L2.292,17.045L2.979,18.339L3.909,19.266L4.886,19.951L5.948,21.325L6.889,21.812L7.926,23.367L8.857,24.128L9.89,25.236L10.888,26.17L11.926,27.18L12.954,28.077L13.926,28.909L14.978,30.328L16.04,31.007L17.074,31.678L18.225,31.012L19.312,30.08L20.07,29.093L21.181,28.063L22.026,27.135L23.431,26.144L24.187,25.171L25.066,24.145L26.315,23.175L27.307,22.201L28.198,21.189L29.15,20.203L30.365,19.192L31.232,18.092L31.813,17.045L31.82,17.055ZM32.254,16.433L31.606,15.987L31.592,15.982L32.254,16.433Z" style="fill:rgb(236,195,139);"/>
        <path d="M19.284,13.002L20.404,13.726L21.698,14.044L22.88,14.622L24.102,15.112L25.268,15.728L26.49,16.222L27.754,16.612L27.704,17.324L26.488,17.694L25.324,18.202L24.204,18.82L22.936,19.064L21.846,19.758L20.592,20.04L20.336,20.24L19.96,21.468L19.494,22.664L19.128,23.898L18.784,25.138L18.222,26.298L17.828,27.522L17.274,28.686L16.738,28.704L16.324,27.514L15.868,26.342L15.35,25.194L14.798,24.062L14.31,22.902L14.322,22.598L15.408,21.778L15.19,21.266L14.072,20.802L13.026,20.178L11.872,19.796L10.818,19.192L9.63,18.89L8.636,18.144L7.412,17.922L6.326,17.384L6.35,16.714L7.566,16.34L8.698,15.754L9.934,15.424L11.114,14.958L12.258,14.402L13.386,13.802L13.592,13.758L14.136,12.592L14.44,11.338L14.88,10.134L15.49,8.992L15.78,7.732L16.32,6.564L16.682,5.328L17.354,5.336L17.718,6.678L18.458,7.862L19.018,9.122L19.544,10.396L20.1,11.658L19.93,12.082L19.188,12.534L19.284,13.002Z" style="fill:rgb(221,147,40);fill-rule:nonzero;"/>
    </g>
</svg>
