<?xml version="1.0" encoding="UTF-8" standalone="no"?>
<!DOCTYPE svg PUBLIC "-//W3C//DTD SVG 1.1//EN" "http://www.w3.org/Graphics/SVG/1.1/DTD/svg11.dtd">
<svg width="100%" height="100%" viewBox="0 0 33 32" version="1.1" xmlns="http://www.w3.org/2000/svg" xmlns:xlink="http://www.w3.org/1999/xlink" xml:space="preserve" xmlns:serif="http://www.serif.com/" style="fill-rule:evenodd;clip-rule:evenodd;stroke-linejoin:round;stroke-miterlimit:2;">
    <path d="M22.459,5.082L21.153,4.644L21.121,4.34L22.553,3.654L24.047,3.112L25.495,2.458L27.731,2.41L26.761,1.954L28.311,1.242L29.879,0.556L31.451,-0L30.937,1.236L30.381,2.516L29.811,3.79L29.245,5.064L28.741,6.36L28.393,5.88L28.471,7.064L27.741,8.672L27.037,10.286L26.643,10.296L26.213,8.95L25.783,7.574L26.733,6.246L27.491,4.888L26.369,6.152L25.155,7.388L24.029,8.698L23.537,7.87L22.679,7.36L23.941,6.16L25.273,5.052L26.497,3.914L25.131,4.666L23.753,5.484L22.459,5.082ZM23.498,8.942L20.558,11.882L19.402,10.972L22.464,7.908C22.964,7.954 23.324,8.268 23.498,8.942ZM11.846,18.526C12.21,18.708 12.556,19.036 12.88,19.56L3.244,29.104L2.162,28.118L11.846,18.526ZM2.262,23.624L3.168,23.624L3.53,23.216L2.986,22.99L4.752,21.532L7.374,22.048L3.212,26.11L0,25.842L2.262,23.624ZM5.357,27.984L9.419,23.822L9.935,26.446L8.477,28.21L8.217,27.51L8.145,27.178L7.843,28.934L6.691,30.112L6.471,29.418L6.309,30.5L5.627,31.198L5.357,27.984ZM29.495,25.686L28.303,26.888L27.223,28.074L25.725,26.834L24.231,25.658L22.869,24.332L21.761,23.328L21.057,24.014L19.965,25.062L19.009,27.396L19.021,27.492L17.457,27.456L15.887,27.482L15.889,25.91L15.897,24.358L18.217,23.392L19.331,22.264L20.453,21.144L21.591,20.042L22.653,18.962L23.741,17.908L24.807,16.834L25.761,14.506L25.757,14.41L27.321,14.438L28.877,14.434L28.905,15.99L28.875,17.55L26.565,18.514L25.445,19.636L24.721,20.334L25.759,21.406L27.077,22.774L28.357,24.18L29.495,25.686ZM30.789,25.699L32.041,26.423L31.811,27.801L31.729,29.195L30.577,30.163L29.251,30.389L27.901,30.587L27.279,29.445L28.917,27.563L28.941,27.467L30.789,25.699ZM17.851,21.774L16.573,20.496L15.159,19.38L13.803,18.204L12.419,17.058L11.095,15.83L10.823,14.448L9.837,14.502L8.557,13.408L7.251,12.274L5.889,11.202L4.585,10.068L3.407,8.792L2.443,7.626L1.981,6.178L1.615,4.164L1.329,2.138L1.251,0.166L3.205,0.392L5.229,0.68L7.279,0.732L8.693,1.324L10.019,2.11L10.913,3.334L12.013,4.366L13.055,5.46L13.793,7.08L14.579,7.352L15.805,8.642L16.987,9.978L18.195,11.286L19.505,12.504L20.721,13.806L21.855,15.182L23.019,16.52L21.893,17.532L20.901,18.588L19.673,17.4L18.307,16.262L17.123,14.944L15.951,13.614L14.663,12.4L13.449,11.114L12.077,9.984L10.881,8.68L9.551,7.508L8.295,6.04L6.901,5.064L5.473,4.342L6.209,5.762L7.155,7.178L8.515,8.546L9.817,9.748L11.115,10.958L12.323,12.254L13.623,13.454L14.801,14.78L16.101,15.982L17.333,17.254L18.597,18.492L19.705,19.786L18.763,20.696L17.851,21.774Z"/>
</svg>
