<?xml version="1.0" encoding="UTF-8" standalone="no"?>
<!DOCTYPE svg PUBLIC "-//W3C//DTD SVG 1.1//EN" "http://www.w3.org/Graphics/SVG/1.1/DTD/svg11.dtd">
<svg width="100%" height="100%" viewBox="0 0 17 17" version="1.1" xmlns="http://www.w3.org/2000/svg" xmlns:xlink="http://www.w3.org/1999/xlink" xml:space="preserve" xmlns:serif="http://www.serif.com/" style="fill-rule:evenodd;clip-rule:evenodd;stroke-linejoin:round;stroke-miterlimit:2;">
    <path d="M8.026,-0C6.944,-0 5.924,0.21 4.992,0.59L4.992,10.116L2.948,10.116L2.948,1.806C1.148,3.278 0,5.52 0,8.032C0,12.474 3.594,16.06 8.026,16.06C9.172,16.06 10.248,15.824 11.224,15.402L11.224,5.92L13.268,5.92L13.268,14.122C14.976,12.648 16.058,10.466 16.058,8.032C16.058,3.59 12.462,-0 8.026,-0M9.14,13.954L7.074,13.954L7.074,2.082L9.14,2.082L9.14,13.954Z" style="fill-rule:nonzero;"/>
</svg>
