<svg xmlns="http://www.w3.org/2000/svg" width="400" height="400" viewBox="0 0 400 400" preserveAspectRatio="none"><path d="M16.0,23.2 L31.0,19.4 L46.0,23.0 L61.0,27.0 L76.0,23.5 L91.0,23.4 L106.0,17.9 L121.0,25.7 L136.0,23.8 L151.0,25.1 L166.0,24.1 L181.0,19.7 L196.0,24.7 L211.0,18.1 L226.0,22.4 L241.0,18.6 L256.0,18.3 L271.0,24.7 L286.0,25.6 L301.0,25.3 L316.0,17.2 L331.0,21.2 L346.0,24.0 L361.0,20.0 L376.0,19.1 L379.9,16.0 L373.9,31.0 L374.4,46.0 L379.4,61.0 L379.3,76.0 L375.0,91.0 L382.1,106.0 L382.3,121.0 L380.5,136.0 L379.9,151.0 L378.5,166.0 L373.3,181.0 L378.9,196.0 L375.7,211.0 L381.5,226.0 L379.2,241.0 L374.4,256.0 L375.0,271.0 L380.6,286.0 L378.1,301.0 L374.7,316.0 L376.3,331.0 L382.8,346.0 L377.5,361.0 L383.0,376.0 L384.0,376.4 L369.0,379.6 L354.0,376.3 L339.0,381.2 L324.0,379.8 L309.0,379.6 L294.0,379.4 L279.0,373.6 L264.0,379.3 L249.0,383.7 L234.0,381.2 L219.0,382.5 L204.0,376.7 L189.0,383.9 L174.0,380.9 L159.0,380.9 L144.0,379.4 L129.0,381.6 L114.0,375.2 L99.0,378.7 L84.0,378.1 L69.0,374.7 L54.0,377.3 L39.0,376.3 L24.0,383.8 L22.1,384.0 L20.9,369.0 L21.6,354.0 L23.3,339.0 L19.2,324.0 L21.4,309.0 L26.5,294.0 L18.2,279.0 L21.7,264.0 L26.0,249.0 L22.7,234.0 L16.2,219.0 L23.0,204.0 L23.1,189.0 L20.4,174.0 L24.9,159.0 L23.5,144.0 L19.1,129.0 L24.7,114.0 L26.9,99.0 L21.4,84.0 L18.1,69.0 L22.3,54.0 L23.4,39.0 L25.5,24.0 Z" fill="#fff"/></svg>