<svg xmlns="http://www.w3.org/2000/svg" width="300" height="300" viewBox="0 0 300 300" preserveAspectRatio="none">
<defs>
<linearGradient id="edge" x1="0" y1="0" x2="1" y2="1">
<stop offset="0%" stop-color="#d9b487"/><stop offset="50%" stop-color="#d9b487"/><stop offset="100%" stop-color="#d9b487"/>
</linearGradient>
<filter id="gr"><feTurbulence type="fractalNoise" baseFrequency="0.8" numOctaves="3" seed="4"/>
<feColorMatrix type="matrix" values="0 0 0 0 0 0 0 0 0 0 0 0 0 0 0 0 0 0 0.10 0"/></filter>
</defs>
<path d="M3.0,5.0 L17.0,8.2 L31.0,6.9 L45.0,3.5 L59.0,10.6 L73.0,3.1 L87.0,5.6 L101.0,4.0 L115.0,3.5 L129.0,13.7 L143.0,6.1 L157.0,8.4 L171.0,5.7 L185.0,13.5 L199.0,10.2 L213.0,7.2 L227.0,4.5 L241.0,7.1 L255.0,9.9 L269.0,3.7 L283.0,13.2 L297.0,8.3 L289.3,3.0 L286.9,17.0 L294.2,31.0 L287.1,45.0 L291.1,59.0 L295.8,73.0 L292.9,87.0 L292.9,101.0 L294.9,115.0 L295.9,129.0 L286.9,143.0 L296.3,157.0 L288.9,171.0 L290.8,185.0 L292.3,199.0 L290.3,213.0 L289.7,227.0 L291.7,241.0 L288.1,255.0 L296.3,269.0 L288.2,283.0 L287.3,297.0 L297.0,292.2 L283.0,290.0 L269.0,296.6 L255.0,293.3 L241.0,286.3 L227.0,293.4 L213.0,295.5 L199.0,294.2 L185.0,291.3 L171.0,287.1 L157.0,289.9 L143.0,290.9 L129.0,294.4 L115.0,289.7 L101.0,295.9 L87.0,293.1 L73.0,295.0 L59.0,295.4 L45.0,296.2 L31.0,295.3 L17.0,291.0 L3.0,291.0 L3.5,297.0 L6.7,283.0 L12.8,269.0 L4.7,255.0 L8.1,241.0 L13.3,227.0 L11.7,213.0 L7.5,199.0 L13.3,185.0 L12.6,171.0 L6.4,157.0 L4.1,143.0 L11.3,129.0 L7.1,115.0 L11.9,101.0 L4.3,87.0 L12.5,73.0 L11.4,59.0 L10.9,45.0 L6.0,31.0 L6.4,17.0 L12.3,3.0 Z M34,34 L266,34 L266,266 L34,266 Z" fill-rule="evenodd" fill="url(#edge)"/>
</svg>